<?xml version="1.0" encoding="UTF-8" standalone="no"?>
<!-- Created with Inkscape (http://www.inkscape.org/) -->

<svg
   xmlns:dc="http://purl.org/dc/elements/1.1/"
   xmlns:cc="http://creativecommons.org/ns#"
   xmlns:rdf="http://www.w3.org/1999/02/22-rdf-syntax-ns#"
   xmlns:svg="http://www.w3.org/2000/svg"
   xmlns="http://www.w3.org/2000/svg"
   xmlns:sodipodi="http://sodipodi.sourceforge.net/DTD/sodipodi-0.dtd"
   xmlns:inkscape="http://www.inkscape.org/namespaces/inkscape"
   width="57.020794mm"
   height="12.698238mm"
   viewBox="0 0 57.020794 12.698238"
   version="1.1"
   id="svg1295"
   inkscape:version="0.92.4 (5da689c313, 2019-01-14)">
  <defs
     id="defs1289" />
  <sodipodi:namedview
     id="base"
     pagecolor="#ffffff"
     bordercolor="#666666"
     borderopacity="1.0"
     inkscape:pageopacity="0.0"
     inkscape:pageshadow="2"
     inkscape:zoom="0.35"
     inkscape:cx="26.368645"
     inkscape:cy="-224.92383"
     inkscape:document-units="mm"
     inkscape:current-layer="layer1"
     showgrid="false"
     fit-margin-top="0"
     fit-margin-left="0"
     fit-margin-right="0"
     fit-margin-bottom="0"
     inkscape:window-width="1920"
     inkscape:window-height="1001"
     inkscape:window-x="-9"
     inkscape:window-y="-9"
     inkscape:window-maximized="1" />
  <metadata
     id="metadata1292">
    <rdf:RDF>
      <cc:Work
         rdf:about="">
        <dc:format>image/svg+xml</dc:format>
        <dc:type
           rdf:resource="http://purl.org/dc/dcmitype/StillImage" />
        <dc:title></dc:title>
      </cc:Work>
    </rdf:RDF>
  </metadata>
  <g
     inkscape:label="Capa 1"
     inkscape:groupmode="layer"
     id="layer1"
     transform="translate(72.366585,-76.623998)">
    <path
       d="m -69.728034,89.145743 c -1.306689,0 -2.03835,-0.798336 -2.287411,-1.545166 -0.130528,-0.391584 -0.174625,-0.760942 -0.174625,-1.463675 v -6.418439 c -7.15e-4,-0.692856 -0.0014,-1.347259 0.465666,-1.969559 0.451203,-0.628297 1.134887,-0.948619 2.029531,-0.948619 1.086556,0 1.895475,0.482247 2.218619,1.322211 0.115712,0.289631 0.177448,0.6731 0.177448,1.107017 v 1.640064 c 0,0.09737 -0.07902,0.176388 -0.176389,0.176388 h -0.795161 c -0.09772,0 -0.176389,-0.07902 -0.176389,-0.176388 v -0.778581 c 0,-0.872419 -0.0194,-1.320447 -0.195439,-1.657703 -0.01799,-0.03634 -0.113947,-0.210608 -0.364772,-0.361244 -0.129117,-0.07161 -0.312561,-0.173567 -0.671336,-0.173567 -0.274814,0 -0.534811,0.07091 -0.752123,0.20567 -0.414513,0.248708 -0.61983,0.725664 -0.612422,1.419577 l 3.44e-4,5.801431 -0.0011,0.212725 c -0.0049,0.601133 -0.01129,1.423811 0.274108,1.899708 0.0949,0.176036 0.226484,0.306917 0.418042,0.418395 0.274814,0.143933 0.563386,0.174978 0.75565,0.174978 0.318911,0 0.523875,-0.08396 0.650169,-0.147109 0.540456,-0.282222 0.600428,-0.832555 0.598311,-1.222022 v -1.899708 c 0,-0.09772 0.07867,-0.176389 0.176389,-0.176389 h 0.82797 c 0.09772,0 0.176389,0.07867 0.176389,0.176389 v 1.805164 c 0,0.596547 -0.05115,0.846666 -0.15875,1.152172 -0.187325,0.532341 -0.748242,1.42628 -2.40277,1.42628"
       style="fill:#1692b1;fill-opacity:1;fill-rule:nonzero;stroke:none;stroke-width:0.35277775"
       id="path132"
       inkscape:connector-curvature="0" />
    <path
       d="m -69.694945,76.624001 c -0.95497,0 -1.686631,0.345016 -2.174876,1.024819 -0.498122,0.663928 -0.497416,1.347259 -0.496711,2.0701 v 0.07373 6.344003 c 0,0.724253 0.04621,1.107722 0.183797,1.519766 0.268112,0.805039 1.054101,1.665817 2.454628,1.665817 1.763184,0 2.366434,-0.968022 2.568928,-1.544461 0.112184,-0.317853 0.168981,-0.592314 0.168981,-1.210381 v -1.805516 c 0,-0.194734 -0.157692,-0.352778 -0.352778,-0.352778 h -0.827969 c -0.194734,0 -0.352778,0.158044 -0.352778,0.352778 v 1.871839 0.02893 c 0.0018,0.343253 -0.04868,0.827264 -0.506236,1.066448 -0.113948,0.0568 -0.287161,0.125236 -0.565503,0.125236 -0.141464,0 -0.417689,-0.02046 -0.681214,-0.158397 -0.147814,-0.08643 -0.258233,-0.195439 -0.333375,-0.334787 -0.268111,-0.447675 -0.261761,-1.241777 -0.257175,-1.821744 l 0.0011,-0.214136 v -5.764392 -0.03916 c -0.0025,-0.233539 -0.01023,-0.944387 0.524581,-1.265414 0.193322,-0.119239 0.421217,-0.181328 0.663222,-0.181328 0.312914,0 0.467078,0.08537 0.59055,0.154164 0.207081,0.12453 0.283281,0.274108 0.286808,0.280105 0.160514,0.308328 0.1778,0.738717 0.1778,1.581503 v 0.778581 c 0,0.194733 0.158045,0.352777 0.352778,0.352777 h 0.795119 c 0.194734,0 0.352778,-0.158044 0.352778,-0.352777 v -1.639711 c 0,-0.456495 -0.06597,-0.862542 -0.190853,-1.17475 -0.34925,-0.907698 -1.217789,-1.430867 -2.381602,-1.430867 m 0,0.352778 c 0.878063,0 1.722613,0.347839 2.053872,1.209322 0.165805,0.414161 0.165805,0.927453 0.165805,1.043517 v 1.639711 h -0.795161 v -0.778581 c 0,-0.877711 -0.01658,-1.358194 -0.215194,-1.739194 -0.04974,-0.09948 -0.182386,-0.281517 -0.430742,-0.430742 -0.148872,-0.0829 -0.364419,-0.198614 -0.762,-0.198614 -0.148872,0 -0.496711,0.01658 -0.844903,0.231775 -0.745066,0.447322 -0.695677,1.407936 -0.695677,1.606903 v 5.764389 c 0,0.629355 -0.04939,1.62313 0.298097,2.203097 0.116064,0.215195 0.281869,0.364067 0.480483,0.480131 0.347839,0.182386 0.695678,0.198613 0.844903,0.198613 0.364419,0 0.596194,-0.09913 0.728839,-0.165452 0.728839,-0.381 0.695678,-1.192742 0.695678,-1.407936 v -1.871839 h 0.827969 v 1.805516 c 0,0.579967 -0.04939,0.811742 -0.148872,1.093259 -0.215195,0.612775 -0.795161,1.308805 -2.236259,1.308805 -1.391355,0 -1.954389,-0.927805 -2.120194,-1.424516 -0.116064,-0.347839 -0.165453,-0.67945 -0.165453,-1.408289 v -6.344003 c 0,-0.712258 -0.01693,-1.341614 0.430389,-1.938161 0.463903,-0.645936 1.143,-0.877711 1.88842,-0.877711"
       style="fill:#29abe2;fill-opacity:1;fill-rule:nonzero;stroke:none;stroke-width:0.35277775"
       id="path136"
       inkscape:connector-curvature="0" />
    <path
       d="m -61.04434,88.963498 c -0.09737,0 -0.176389,-0.07902 -0.176389,-0.176389 v -11.69423 c 0,-0.09772 0.07902,-0.176389 0.176389,-0.176389 h 0.811388 c 0.09772,0 0.176389,0.07867 0.176389,0.176389 v 10.789003 h 2.871611 c 0.09737,0 0.176389,0.07902 0.176389,0.176389 v 0.728838 c 0,0.09737 -0.07902,0.176389 -0.176389,0.176389 z"
       style="fill:#1692b1;fill-opacity:1;fill-rule:nonzero;stroke:none;stroke-width:0.35277775"
       id="path140"
       inkscape:connector-curvature="0" />
    <path
       d="m -60.23267,76.739924 h -0.811742 c -0.195086,0 -0.352777,0.158044 -0.352777,0.352777 v 11.694231 c 0,0.195086 0.157691,0.352778 0.352777,0.352778 h 3.859389 c 0.194733,0 0.352778,-0.157692 0.352778,-0.352778 v -0.728839 c 0,-0.194733 -0.158045,-0.352777 -0.352778,-0.352777 h -2.694869 V 77.092701 c 0,-0.194733 -0.158045,-0.352777 -0.352778,-0.352777 m 0,0.352777 v 10.965392 h 3.047647 v 0.728839 h -3.859389 V 77.092701 h 0.811742"
       style="fill:#29abe2;fill-opacity:1;fill-rule:nonzero;stroke:none;stroke-width:0.35277775"
       id="path144"
       inkscape:connector-curvature="0" />
    <path
       d="m -51.255074,88.963498 c -0.09737,0 -0.17639,-0.07902 -0.17639,-0.176389 v -11.69423 c 0,-0.09772 0.07902,-0.176389 0.17639,-0.176389 h 4.140906 c 0.09772,0 0.176387,0.07867 0.176387,0.176389 v 0.728839 c 0,0.09737 -0.07867,0.176389 -0.176387,0.176389 h -3.169356 v 4.152547 h 2.57316 c 0.09737,0 0.17639,0.07902 0.17639,0.176389 v 0.712258 c 0,0.09737 -0.07902,0.176389 -0.17639,0.176389 h -2.57316 v 4.666192 h 3.152775 c 0.09772,0 0.176389,0.07902 0.176389,0.176389 v 0.728838 c 0,0.09737 -0.07867,0.176389 -0.176389,0.176389 z"
       style="fill:#1692b1;fill-opacity:1;fill-rule:nonzero;stroke:none;stroke-width:0.35277775"
       id="path148"
       inkscape:connector-curvature="0" />
    <path
       d="m -47.114099,76.739924 h -4.140907 c -0.195085,0 -0.352777,0.158044 -0.352777,0.352777 v 11.694231 c 0,0.195086 0.157692,0.352778 0.352777,0.352778 h 4.124325 c 0.194734,0 0.35278,-0.157692 0.35278,-0.352778 v -0.728839 c 0,-0.194733 -0.158046,-0.352777 -0.35278,-0.352777 h -2.976385 v -4.313415 h 2.396773 c 0.194734,0 0.352777,-0.157691 0.352777,-0.352777 v -0.712259 c 0,-0.194733 -0.158043,-0.352777 -0.352777,-0.352777 h -2.396773 v -3.79977 h 2.992967 c 0.194733,0 0.352777,-0.158044 0.352777,-0.352778 v -0.728839 c 0,-0.194733 -0.158044,-0.352777 -0.352777,-0.352777 m 0,0.352777 v 0.728839 h -3.345744 v 4.505325 h 2.74955 v 0.712259 h -2.74955 v 5.018969 h 3.329162 v 0.728839 h -4.124325 V 77.092701 h 4.140907"
       style="fill:#29abe2;fill-opacity:1;fill-rule:nonzero;stroke:none;stroke-width:0.35277775"
       id="path152"
       inkscape:connector-curvature="0" />
    <path
       d="m -39.826662,88.963498 c -0.09737,0 -0.17639,-0.07902 -0.17639,-0.176389 v -11.69423 c 0,-0.09772 0.07902,-0.176389 0.17639,-0.176389 h 0.844902 c 0.09737,0 0.17639,0.07867 0.17639,0.176389 v 11.69423 c 0,0.09737 -0.07902,0.176389 -0.17639,0.176389 z"
       style="fill:#1692b1;fill-opacity:1;fill-rule:nonzero;stroke:none;stroke-width:0.35277775"
       id="path156"
       inkscape:connector-curvature="0" />
    <path
       d="m -38.981935,76.739924 h -0.844902 c -0.194733,0 -0.352779,0.158044 -0.352779,0.352777 v 11.694231 c 0,0.195086 0.158046,0.352778 0.352779,0.352778 h 0.844902 c 0.194734,0 0.352777,-0.157692 0.352777,-0.352778 V 77.092701 c 0,-0.194733 -0.158043,-0.352777 -0.352777,-0.352777 m 0,12.047008 h -0.844902 V 77.092701 h 0.844902 z"
       style="fill:#29abe2;fill-opacity:1;fill-rule:nonzero;stroke:none;stroke-width:0.35277775"
       id="path160"
       inkscape:connector-curvature="0" />
    <path
       d="m -34.608727,88.306837 3.71475,-4.870803 c 0.363715,-0.467783 0.519642,-0.909108 0.519642,-1.441803 0,-1.104194 -0.649465,-1.844675 -1.779765,-1.844675 -0.960966,0 -1.77941,0.545748 -1.77941,1.844675 h -0.662165 c 0,-1.376891 0.922163,-2.428875 2.441575,-2.428875 1.480963,0 2.442282,0.97402 2.442282,2.428875 0,0.68827 -0.168982,1.168753 -0.636411,1.779411 l -3.468158,4.533195 h 4.104569 v 0.584553 h -4.896909 z"
       style="fill:#b3b3b3;fill-opacity:1;fill-rule:nonzero;stroke:none;stroke-width:0.35277775"
       id="path414"
       inkscape:connector-curvature="0" />
    <path
       d="m -26.503621,80.149733 c -1.156052,0 -1.766358,0.85725 -1.766358,1.948391 v 4.338109 c 0,1.091141 0.610306,1.948391 1.766358,1.948391 1.156052,0 1.766358,-0.85725 1.766358,-1.948391 v -4.338109 c 0,-1.091141 -0.610306,-1.948391 -1.766358,-1.948391 m 0,8.819444 c -1.415698,0 -2.428875,-1.02623 -2.428875,-2.46768 v -4.468284 c 0,-1.441803 1.013177,-2.468033 2.428875,-2.468033 1.42875,0 2.428875,1.02623 2.428875,2.468033 v 4.468284 c 0,1.44145 -1.000125,2.46768 -2.428875,2.46768"
       style="fill:#b3b3b3;fill-opacity:1;fill-rule:nonzero;stroke:none;stroke-width:0.35277775"
       id="path418"
       inkscape:connector-curvature="0" />
    <path
       d="m -23.204267,88.306837 3.71475,-4.870803 c 0.364067,-0.467783 0.519642,-0.909108 0.519642,-1.441803 0,-1.104194 -0.649111,-1.844675 -1.779411,-1.844675 -0.961321,0 -1.779412,0.545748 -1.779412,1.844675 h -0.662517 c 0,-1.376891 0.922163,-2.428875 2.441929,-2.428875 1.480609,0 2.441927,0.97402 2.441927,2.428875 0,0.68827 -0.168981,1.168753 -0.63641,1.779411 l -3.468158,4.533195 h 4.104568 v 0.584553 h -4.896908 z"
       style="fill:#e6e6e6;fill-opacity:1;fill-rule:nonzero;stroke:none;stroke-width:0.35277775"
       id="path422"
       inkscape:connector-curvature="0" />
    <path
       d="M -16.008307,80.471325 -17.684,81.952286 v -0.792339 l 1.675693,-1.441803 h 0.662517 v 9.24807 h -0.662517 z"
       style="fill:#e6e6e6;fill-opacity:1;fill-rule:nonzero;stroke:none;stroke-width:0.35277775"
       id="path426"
       inkscape:connector-curvature="0" />
  </g>
</svg>
