<?xml version="1.0" encoding="UTF-8" standalone="no"?>
<svg
   xmlns:dc="http://purl.org/dc/elements/1.1/"
   xmlns:cc="http://creativecommons.org/ns#"
   xmlns:rdf="http://www.w3.org/1999/02/22-rdf-syntax-ns#"
   xmlns:svg="http://www.w3.org/2000/svg"
   xmlns="http://www.w3.org/2000/svg"
   xmlns:sodipodi="http://sodipodi.sourceforge.net/DTD/sodipodi-0.dtd"
   xmlns:inkscape="http://www.inkscape.org/namespaces/inkscape"
   version="1.1"
   class="headerCenter"
   x="0px"
   y="0px"
   viewBox="-239 -584 720 1280"
   style="enable-background:new -239 -584 720 1280;"
   xml:space="preserve"
   id="svg1679"
   sodipodi:docname="truckBackground.svg"
   inkscape:version="0.92.4 (5da689c313, 2019-01-14)"><metadata
   id="metadata1685"><rdf:RDF><cc:Work
       rdf:about=""><dc:format>image/svg+xml</dc:format><dc:type
         rdf:resource="http://purl.org/dc/dcmitype/StillImage" /></cc:Work></rdf:RDF></metadata><defs
   id="defs1683" /><sodipodi:namedview
   pagecolor="#ffffff"
   bordercolor="#666666"
   borderopacity="1"
   objecttolerance="10"
   gridtolerance="10"
   guidetolerance="10"
   inkscape:pageopacity="0"
   inkscape:pageshadow="2"
   inkscape:window-width="1920"
   inkscape:window-height="1001"
   id="namedview1681"
   showgrid="false"
   inkscape:zoom="1.2625"
   inkscape:cx="111.10111"
   inkscape:cy="340.62469"
   inkscape:window-x="-9"
   inkscape:window-y="-9"
   inkscape:window-maximized="1"
   inkscape:current-layer="truck" />
	<style
   id="style1511">
		.st0{fill:#3A3A59;}
        .st1{fill:#169CEE;}
        .st2{fill:#0E69A1;}
        .st3{fill:#F15732;}
        .st4{opacity:0.3;fill:#FFFFFF;enable-background:new;}
        .st5{fill:#555574;}
        .st6{fill:none;stroke:#0E69A1;stroke-width:8;stroke-linecap:round;stroke-miterlimit:10;}
        .st7{fill:#EF3F61;}
        .st8{fill:#4BBC6E;}
        .st9{fill:none;stroke:#3A3A59;stroke-width:16;stroke-linecap:round;stroke-miterlimit:10;}
        .st10{fill:none;stroke:#0E69A1;stroke-width:8;stroke-miterlimit:10;}
        .st11{fill:#159CEE;}
	</style>
	<g
   id="truck"
   transform="translate(-7.9207921,-2.3762376)">
		<g
   id="g1668">
			<rect
   x="-214.8"
   y="631.20001"
   class="st0"
   width="149.2"
   height="33"
   id="rect1513"
   style="fill:#3a3a59" />
			<polygon
   class="st0"
   points="130.8,664.2 130.8,631.2 446.6,631.2 461.8,646.3 461.9,664.2 "
   id="polygon1515"
   style="fill:#3a3a59" />
			<rect
   x="-230.8"
   y="607.20001"
   class="st1"
   width="480"
   height="24"
   id="rect1517"
   style="fill:#169cee" />
			<path
   id="fix_1_"
   class="st1"
   d="M 400.5,583.8 388.2,533 h -27.9 c -0.1,0 -17.5,-34 -56.9,-34 -4.6,0 -9.4,0 -9.4,0 v 34 122.3 h 106.5 v 13.5 H 472 v -79.3 z"
   inkscape:connector-curvature="0"
   style="fill:#169cee" />
			<rect
   x="279.29999"
   y="459"
   class="st0"
   width="14.6"
   height="172.2"
   id="rect1520"
   style="fill:#3a3a59" />
			<g
   id="g1544">
				<circle
   class="st2"
   cx="-105.1"
   cy="665.90002"
   r="30.5"
   id="circle1522"
   style="fill:#0e69a1" />
				<circle
   class="st1"
   cx="-105.1"
   cy="665.90002"
   r="16.9"
   id="circle1524"
   style="fill:#169cee" />
				<g
   id="g1542">
					<circle
   class="st2"
   cx="-93.199997"
   cy="665.90002"
   r="1.7"
   id="circle1526"
   style="fill:#0e69a1" />
					<circle
   class="st2"
   cx="-116.9"
   cy="665.90002"
   r="1.7"
   id="circle1528"
   style="fill:#0e69a1" />
					<circle
   class="st2"
   cx="-105.1"
   cy="677.70001"
   r="1.7"
   id="circle1530"
   style="fill:#0e69a1" />
					<circle
   class="st2"
   cx="-105.1"
   cy="654"
   r="1.7"
   id="circle1532"
   style="fill:#0e69a1" />
					<circle
   class="st2"
   cx="-96.699997"
   cy="657.5"
   r="1.7"
   id="circle1534"
   style="fill:#0e69a1" />
					<circle
   class="st2"
   cx="-113.5"
   cy="674.29999"
   r="1.7"
   id="circle1536"
   style="fill:#0e69a1" />
					<circle
   class="st2"
   cx="-96.699997"
   cy="674.29999"
   r="1.7"
   id="circle1538"
   style="fill:#0e69a1" />
					<circle
   class="st2"
   cx="-113.5"
   cy="657.5"
   r="1.7"
   id="circle1540"
   style="fill:#0e69a1" />
				</g>
			</g>
			<g
   id="g1568">
				<circle
   class="st2"
   cx="-175.3"
   cy="665.90002"
   r="30.5"
   id="circle1546"
   style="fill:#0e69a1" />
				<circle
   class="st1"
   cx="-175.3"
   cy="665.90002"
   r="16.9"
   id="circle1548"
   style="fill:#169cee" />
				<g
   id="g1566">
					<circle
   class="st2"
   cx="-163.5"
   cy="665.90002"
   r="1.7"
   id="circle1550"
   style="fill:#0e69a1" />
					<circle
   class="st2"
   cx="-187.2"
   cy="665.90002"
   r="1.7"
   id="circle1552"
   style="fill:#0e69a1" />
					<circle
   class="st2"
   cx="-175.3"
   cy="677.70001"
   r="1.7"
   id="circle1554"
   style="fill:#0e69a1" />
					<circle
   class="st2"
   cx="-175.3"
   cy="654"
   r="1.7"
   id="circle1556"
   style="fill:#0e69a1" />
					<circle
   class="st2"
   cx="-167"
   cy="657.5"
   r="1.7"
   id="circle1558"
   style="fill:#0e69a1" />
					<circle
   class="st2"
   cx="-183.7"
   cy="674.29999"
   r="1.7"
   id="circle1560"
   style="fill:#0e69a1" />
					<circle
   class="st2"
   cx="-167"
   cy="674.29999"
   r="1.7"
   id="circle1562"
   style="fill:#0e69a1" />
					<circle
   class="st2"
   cx="-183.7"
   cy="657.5"
   r="1.7"
   id="circle1564"
   style="fill:#0e69a1" />
				</g>
			</g>
			<g
   id="g1592">
				<circle
   class="st2"
   cx="239.2"
   cy="665.90002"
   r="30.5"
   id="circle1570"
   style="fill:#0e69a1" />
				<circle
   class="st1"
   cx="239.2"
   cy="665.90002"
   r="16.9"
   id="circle1572"
   style="fill:#169cee" />
				<g
   id="g1590">
					<circle
   class="st2"
   cx="251.10001"
   cy="665.90002"
   r="1.7"
   id="circle1574"
   style="fill:#0e69a1" />
					<circle
   class="st2"
   cx="227.3"
   cy="665.90002"
   r="1.7"
   id="circle1576"
   style="fill:#0e69a1" />
					<circle
   class="st2"
   cx="239.2"
   cy="677.70001"
   r="1.7"
   id="circle1578"
   style="fill:#0e69a1" />
					<circle
   class="st2"
   cx="239.2"
   cy="654"
   r="1.7"
   id="circle1580"
   style="fill:#0e69a1" />
					<circle
   class="st2"
   cx="247.60001"
   cy="657.5"
   r="1.7"
   id="circle1582"
   style="fill:#0e69a1" />
					<circle
   class="st2"
   cx="230.8"
   cy="674.29999"
   r="1.7"
   id="circle1584"
   style="fill:#0e69a1" />
					<circle
   class="st2"
   cx="247.60001"
   cy="674.29999"
   r="1.7"
   id="circle1586"
   style="fill:#0e69a1" />
					<circle
   class="st2"
   cx="230.8"
   cy="657.5"
   r="1.7"
   id="circle1588"
   style="fill:#0e69a1" />
				</g>
			</g>
			<g
   id="g1616">
				<circle
   class="st2"
   cx="168.89999"
   cy="665.90002"
   r="30.5"
   id="circle1594"
   style="fill:#0e69a1" />
				<circle
   class="st1"
   cx="168.89999"
   cy="665.90002"
   r="16.9"
   id="circle1596"
   style="fill:#169cee" />
				<g
   id="g1614">
					<circle
   class="st2"
   cx="180.8"
   cy="665.90002"
   r="1.7"
   id="circle1598"
   style="fill:#0e69a1" />
					<circle
   class="st2"
   cx="157.10001"
   cy="665.90002"
   r="1.7"
   id="circle1600"
   style="fill:#0e69a1" />
					<circle
   class="st2"
   cx="168.89999"
   cy="677.70001"
   r="1.7"
   id="circle1602"
   style="fill:#0e69a1" />
					<circle
   class="st2"
   cx="168.89999"
   cy="654"
   r="1.7"
   id="circle1604"
   style="fill:#0e69a1" />
					<circle
   class="st2"
   cx="177.3"
   cy="657.5"
   r="1.7"
   id="circle1606"
   style="fill:#0e69a1" />
					<circle
   class="st2"
   cx="160.5"
   cy="674.29999"
   r="1.7"
   id="circle1608"
   style="fill:#0e69a1" />
					<circle
   class="st2"
   cx="177.3"
   cy="674.29999"
   r="1.7"
   id="circle1610"
   style="fill:#0e69a1" />
					<circle
   class="st2"
   cx="160.5"
   cy="657.5"
   r="1.7"
   id="circle1612"
   style="fill:#0e69a1" />
				</g>
			</g>
			<rect
   x="302.89999"
   y="550.90002"
   class="st2"
   width="25.200001"
   height="3.5999999"
   id="rect1618"
   style="fill:#0e69a1" />
			<rect
   x="302.89999"
   y="561.59998"
   class="st2"
   width="25.200001"
   height="3.5999999"
   id="rect1620"
   style="fill:#0e69a1" />
			<rect
   x="302.89999"
   y="572.40002"
   class="st2"
   width="25.200001"
   height="3.5999999"
   id="rect1622"
   style="fill:#0e69a1" />
			<polygon
   class="st3"
   points="392.5,583.8 382.8,543.8 337.5,543.8 340.2,583.8 "
   id="polygon1624"
   style="fill:#f15732" />
			<polygon
   class="st4"
   points="392.5,583.8 382.8,543.8 380.2,543.8 340.2,583.8 "
   id="polygon1626"
   style="opacity:0.3;fill:#ffffff;enable-background:new" />
			<rect
   x="340.20001"
   y="592.79999"
   class="st2"
   width="14.4"
   height="3.5999999"
   id="rect1628"
   style="fill:#0e69a1" />
			<rect
   x="351"
   y="596.40002"
   class="st2"
   width="3.5999999"
   height="3.5999999"
   id="rect1630"
   style="fill:#0e69a1" />
			<path
   class="st5"
   d="m 350.6,636.6 h -70.3 c 0,0 -4.4,5.5 -4.4,15.3 0,8.7 4.4,15.3 4.4,15.3 h 70.3 c 0,0 2.2,-4.3 2.2,-15.3 -0.1,-7.7 -2.2,-15.3 -2.2,-15.3 z"
   id="path1632"
   inkscape:connector-curvature="0"
   style="fill:#555574" />
			<polygon
   class="st0"
   points="428.8,669.7 396.4,664.2 382,664.2 382.3,646.3 398.3,630.3 436.3,630.3 452.3,646.3 452.5,669.7 "
   id="polygon1634"
   style="fill:#3a3a59" />
			<g
   id="g1658">
				<circle
   class="st2"
   cx="417.10001"
   cy="665.90002"
   r="30.5"
   id="circle1636"
   style="fill:#0e69a1" />
				<circle
   class="st1"
   cx="417.10001"
   cy="665.90002"
   r="16.9"
   id="circle1638"
   style="fill:#169cee" />
				<g
   id="g1656">
					<circle
   class="st2"
   cx="429"
   cy="665.90002"
   r="1.7"
   id="circle1640"
   style="fill:#0e69a1" />
					<circle
   class="st2"
   cx="405.29999"
   cy="665.90002"
   r="1.7"
   id="circle1642"
   style="fill:#0e69a1" />
					<circle
   class="st2"
   cx="417.10001"
   cy="677.70001"
   r="1.7"
   id="circle1644"
   style="fill:#0e69a1" />
					<circle
   class="st2"
   cx="417.10001"
   cy="654"
   r="1.7"
   id="circle1646"
   style="fill:#0e69a1" />
					<circle
   class="st2"
   cx="425.5"
   cy="657.5"
   r="1.7"
   id="circle1648"
   style="fill:#0e69a1" />
					<circle
   class="st2"
   cx="408.70001"
   cy="674.29999"
   r="1.7"
   id="circle1650"
   style="fill:#0e69a1" />
					<circle
   class="st2"
   cx="425.5"
   cy="674.29999"
   r="1.7"
   id="circle1652"
   style="fill:#0e69a1" />
					<circle
   class="st2"
   cx="408.70001"
   cy="657.5"
   r="1.7"
   id="circle1654"
   style="fill:#0e69a1" />
				</g>
			</g>
			<path
   class="st2"
   d="m 475.5,650.8 h -8.6 v 18 h 8.6 c 2.2,0 4,-1.8 4,-4 v -10 c 0,-2.2 -1.8,-4 -4,-4 z"
   id="path1660"
   inkscape:connector-curvature="0"
   style="fill:#0e69a1" />
			<line
   class="st6"
   x1="474.10001"
   y1="598.29999"
   x2="468.10001"
   y2="598.29999"
   id="line1662"
   style="fill:none;stroke:#0e69a1;stroke-width:8;stroke-linecap:round;stroke-miterlimit:10" />
			<line
   class="st6"
   x1="474.10001"
   y1="612.29999"
   x2="468.10001"
   y2="612.29999"
   id="line1664"
   style="fill:none;stroke:#0e69a1;stroke-width:8;stroke-linecap:round;stroke-miterlimit:10" />
			<line
   class="st6"
   x1="474.10001"
   y1="625.29999"
   x2="468.10001"
   y2="625.29999"
   id="line1666"
   style="fill:none;stroke:#0e69a1;stroke-width:8;stroke-linecap:round;stroke-miterlimit:10" />
		</g>
		<path
   class="st7"
   d="m 249.2802,538.24752 -5.3,-12.7 -11.2,3.6 c -3.1,-4.7 -7,-8.5 -11.6,-11.5 l 3.6,-11.3 -12.7,-5.3 -5.4,10.6 c -5.2,-1 -10.7,-1 -16.1,0.1 l -5.5,-10.7 -12.7,5.3 3.7,11.6 c -4.5,3.1 -8.3,6.9 -11.2,11.3 l -11.7,-3.7 -5.3,12.7 11,5.7 c -1,5.1 -1,10.5 0,15.8 l -11,5.7 5.3,12.7 11.8,-3.8 c 3,4.5 6.8,8.3 11.1,11.2 l -3.8,11.8 12.7,5.3 5.6,-10.9 c 5.2,1.1 10.6,1.1 15.9,0.1 l 5.6,10.8 12.7,-5.3 -3.7,-11.5 c 4.6,-3 8.5,-6.9 11.5,-11.3 l 11.3,3.6 5.3,-12.7 -10.5,-5.4 c 1.1,-5.3 1.2,-10.8 0,-16.3 z m -44.8,27 c -7.5,3.1 -16.2,-0.5 -19.3,-8 -3.1,-7.5 0.5,-16.2 8,-19.3 7.5,-3.1 16.2,0.5 19.3,8 3.2,7.6 -0.4,16.2 -8,19.3 z"
   id="path1670"
   inkscape:connector-curvature="0"
   style="fill:#ef3f61" />
		<g
   id="g1676"
   transform="translate(-190.09901,-0.79207921)">
			<path
   class="st5"
   d="m 59.1,550.2 c 0.1,-0.1 0.2,-0.3 0.3,-0.4 7,-10.7 8.4,-20.7 4.1,-28.2 -4,-6.9 -12.3,-10.6 -23.6,-10.6 -1.1,0 -2.2,0 -3.3,0.1 C 31,499.9 23,493 14,493 c -9,0 -17,6.9 -22.6,18.1 -1.1,-0.1 -2.3,-0.1 -3.3,-0.1 -11.3,0 -19.6,3.8 -23.6,10.6 -4.5,7.8 -2.5,18.2 4.3,28.6 -6.9,10.4 -8.9,20.8 -4.3,28.6 4,6.9 12.3,10.6 23.6,10.6 1.1,0 2.2,0 3.3,-0.1 5.6,11.2 13.6,18.1 22.6,18.1 9,0 17,-6.9 22.6,-18.1 1.1,0.1 2.3,0.1 3.3,0.1 11.3,0 19.6,-3.8 23.6,-10.6 4.3,-7.5 2.9,-17.5 -4.1,-28.2 -0.1,-0.1 -0.2,-0.3 -0.3,-0.4 z M 39.9,517.9 c 8.7,0 14.9,2.6 17.6,7.2 2.7,4.7 1.7,11.6 -2.8,19.2 -3.2,-3.8 -7,-7.6 -11.3,-11.1 -0.9,-5.5 -2.2,-10.7 -3.9,-15.4 0.1,0.1 0.2,0.1 0.4,0.1 z m -14.1,52.9 c -3.9,2.3 -7.9,4.2 -11.9,5.9 -4,-1.6 -8,-3.6 -11.9,-5.9 -4,-2.3 -7.7,-4.8 -11.1,-7.4 -0.5,-4.2 -0.8,-8.6 -0.8,-13.3 0,-4.7 0.3,-9.1 0.8,-13.3 3.3,-2.6 7,-5 11.1,-7.4 3.9,-2.3 7.9,-4.2 11.9,-5.9 4,1.6 8,3.6 11.9,5.9 4,2.3 7.7,4.8 11.1,7.4 0.5,4.1 0.8,8.6 0.8,13.2 0,4.6 -0.3,9.1 -0.8,13.2 -3.4,2.8 -7.1,5.4 -11.1,7.6 z m 9.3,2.4 c -0.8,3.1 -1.7,6 -2.8,8.7 -2.9,-0.4 -5.8,-1.1 -8.9,-1.9 2,-1 4,-2 5.9,-3.2 2,-1.1 3.9,-2.3 5.8,-3.6 z M 4.4,580 c -3,0.9 -6,1.5 -8.9,1.9 -1.1,-2.6 -2,-5.5 -2.8,-8.7 1.9,1.2 3.8,2.4 5.8,3.6 2,1.2 4,2.2 5.9,3.2 z m -21,-23 c -2.3,-2.3 -4.4,-4.5 -6.1,-6.8 1.8,-2.2 3.8,-4.5 6.1,-6.8 -0.1,2.2 -0.2,4.5 -0.2,6.8 0,2.3 0,4.5 0.2,6.8 z m 9.4,-29.9 c 0.8,-3.1 1.7,-6 2.8,-8.7 2.9,0.4 5.8,1.1 8.9,1.9 -2,1 -4,2 -5.9,3.2 -2.1,1.2 -4,2.4 -5.8,3.6 z m 30.6,-6.7 c 3,-0.9 6,-1.5 8.9,-1.9 1.1,2.7 2,5.6 2.8,8.7 -1.9,-1.2 -3.8,-2.4 -5.8,-3.6 -2,-1.2 -3.9,-2.2 -5.9,-3.2 z m 21.1,23.1 c 2.2,2.2 4.3,4.4 6.1,6.7 -1.8,2.3 -3.8,4.5 -6.1,6.7 0.1,-2.2 0.2,-4.4 0.2,-6.7 0,-2.3 -0.1,-4.5 -0.2,-6.7 z M 13.9,499.9 c 5.3,0 10.9,4.4 15.3,12.1 -4.9,0.9 -10.1,2.3 -15.3,4.3 -5.2,-2 -10.3,-3.4 -15.3,-4.3 4.4,-7.7 10,-12.1 15.3,-12.1 z M -29.6,525 c 2.7,-4.6 8.9,-7.2 17.6,-7.2 0.1,0 0.3,0 0.4,0 -1.7,4.6 -3,9.8 -3.9,15.3 -4.3,3.5 -8.1,7.3 -11.3,11 -4.5,-7.5 -5.5,-14.4 -2.8,-19.1 z m 17.5,57.5 c -8.7,0 -14.9,-2.6 -17.6,-7.2 -2.7,-4.6 -1.7,-11.6 2.8,-19.2 3.2,3.8 7,7.5 11.3,11 0.9,5.5 2.2,10.7 3.9,15.3 -0.1,0.1 -0.2,0.1 -0.4,0.1 z m 26,18 c -5.3,0 -10.9,-4.4 -15.3,-12.1 4.9,-0.9 10.1,-2.3 15.3,-4.3 5.2,2 10.3,3.4 15.3,4.3 -4.4,7.7 -9.9,12.1 -15.3,12.1 z m 43.6,-25.2 c -2.7,4.6 -8.9,7.2 -17.6,7.2 -0.1,0 -0.3,0 -0.4,0 1.7,-4.7 3,-9.8 3.9,-15.4 4.3,-3.5 8.1,-7.2 11.3,-11.1 4.4,7.7 5.5,14.6 2.8,19.3 z"
   id="path1672"
   inkscape:connector-curvature="0"
   style="fill:#555574" />
			<circle
   class="st5"
   cx="13.9"
   cy="550.20001"
   r="10.9"
   id="circle1674"
   style="fill:#555574" />
		</g>
	<g
   transform="matrix(3.7795276,0,0,3.7795276,-1162.9866,-104.80953)"
   id="layer1"
   inkscape:label="Capa 1"><path
     inkscape:connector-curvature="0"
     id="path164"
     style="fill:#1692b1;fill-opacity:1;fill-rule:nonzero;stroke:none;stroke-width:0.35277775"
     d="m 324.85229,136.75539 c -1.7018,0 -2.65393,-1.03752 -2.97743,-2.00872 -0.17111,-0.51223 -0.22895,-0.9973 -0.22895,-1.92228 v -8.50724 c 0,-0.9084 -0.003,-1.76671 0.60606,-2.57669 0.58737,-0.81809 1.4778,-1.23437 2.64443,-1.23437 1.4157,0 2.46769,0.62548 2.88713,1.71592 0.151,0.37747 0.23143,0.87841 0.23143,1.44638 v 2.17382 c 0,0.0977 -0.079,0.17639 -0.1764,0.17639 h -1.05375 c -0.0977,0 -0.17637,-0.0787 -0.17637,-0.17639 v -1.03188 c 0,-1.16592 -0.0265,-1.76494 -0.26564,-2.22355 -0.0251,-0.0498 -0.15912,-0.29351 -0.5052,-0.5013 -0.1679,-0.0935 -0.42862,-0.23848 -0.91932,-0.23848 -0.37537,0 -0.73062,0.0974 -1.02695,0.28081 -0.56727,0.34079 -0.84913,0.9899 -0.83926,1.93111 v 7.68985 0.28187 c -0.007,0.80327 -0.0151,1.90323 0.3711,2.54741 0.13018,0.24094 0.31152,0.42157 0.57468,0.57538 0.37676,0.1972 0.76906,0.23918 1.03081,0.23918 0.43569,0 0.71475,-0.11465 0.88726,-0.20108 0.83148,-0.43427 0.82618,-1.36561 0.82478,-1.67146 v -2.51813 c 0,-0.0974 0.0787,-0.17639 0.1764,-0.17639 h 1.09784 c 0.0974,0 0.17639,0.079 0.17639,0.17639 v 2.39359 c 0,0.7807 -0.067,1.10843 -0.2078,1.50743 -0.2427,0.69179 -0.97261,1.85243 -3.13055,1.85243" /><path
     inkscape:connector-curvature="0"
     id="path168"
     style="fill:#29abe2;fill-opacity:1;fill-rule:nonzero;stroke:none;stroke-width:0.35277775"
     d="m 324.8964,120.32971 c -1.22695,0 -2.16535,0.44097 -2.78977,1.31092 -0.63852,0.85125 -0.6378,1.73813 -0.63712,2.67688 v 0.0977 8.40917 c 0,0.9458 0.06,1.44498 0.23779,1.97802 0.34324,1.02941 1.34971,2.12937 3.14502,2.12937 2.26623,0 3.03847,-1.23437 3.29705,-1.97026 0.14745,-0.41769 0.21767,-0.75847 0.21767,-1.56598 v -2.3936 c 0,-0.19473 -0.15806,-0.35278 -0.35279,-0.35278 h -1.09784 c -0.19473,0 -0.35277,0.15805 -0.35277,0.35278 v 2.48144 0.0374 c 0.003,0.48507 -0.0712,1.16981 -0.73342,1.51624 -0.15063,0.0751 -0.405,0.17921 -0.80256,0.17921 -0.24167,0 -0.60397,-0.0388 -0.95605,-0.22295 -0.21976,-0.12877 -0.37994,-0.28752 -0.49001,-0.49177 -0.36898,-0.61595 -0.36052,-1.68734 -0.35417,-2.46945 0,-0.0991 0,-0.19403 0,-0.28328 v -7.64117 -0.0504 c -0.003,-0.32597 -0.0138,-1.31763 0.75142,-1.77659 0.27342,-0.16934 0.59621,-0.25718 0.9384,-0.25718 0.4445,0 0.67238,0.12665 0.83854,0.21908 0.30057,0.18062 0.41487,0.39617 0.42651,0.42015 0.22402,0.42969 0.24871,1.01107 0.24871,2.14772 v 1.03187 c 0,0.19509 0.15769,0.35278 0.35279,0.35278 h 1.05373 c 0.19474,0 0.3528,-0.15769 0.3528,-0.35278 v -2.17346 c 0,-0.5902 -0.0847,-1.11408 -0.24485,-1.51448 -0.44519,-1.15781 -1.55786,-1.82456 -3.05011,-1.82456 m 0,0.35277 c 1.16382,0 2.28354,0.46108 2.7224,1.60267 0.21976,0.54928 0.21976,1.22979 0.21976,1.3836 v 2.17346 h -1.05373 v -1.03187 c 0,-1.16382 -0.0222,-1.80023 -0.28575,-2.30541 -0.066,-0.13193 -0.24167,-0.37323 -0.57081,-0.57079 -0.19754,-0.10972 -0.48294,-0.26353 -1.00999,-0.26353 -0.19757,0 -0.659,0.0219 -1.11972,0.30727 -0.98814,0.59302 -0.92252,1.8662 -0.92252,2.12972 v 7.64117 c 0,0.83432 -0.0656,2.15159 0.39581,2.91994 0.15346,0.28575 0.37291,0.48295 0.63643,0.63712 0.46107,0.2413 0.92216,0.26317 1.11972,0.26317 0.48294,0 0.79057,-0.13159 0.96589,-0.21943 0.96626,-0.50517 0.92252,-1.58115 0.92252,-1.86619 v -2.48144 h 1.09784 v 2.3936 c 0,0.76835 -0.0663,1.07562 -0.19791,1.44886 -0.28504,0.81244 -1.05373,1.7346 -2.96402,1.7346 -1.84433,0 -2.5908,-1.22943 -2.81059,-1.88842 -0.15346,-0.46072 -0.21942,-0.89993 -0.21942,-1.86619 v -8.40917 c 0,-0.94403 -0.022,-1.77835 0.57078,-2.56892 0.6149,-0.85619 1.51519,-1.16382 2.50331,-1.16382" /><path
     inkscape:connector-curvature="0"
     id="path172"
     style="fill:#1692b1;fill-opacity:1;fill-rule:nonzero;stroke:none;stroke-width:0.35277775"
     d="m 336.3627,136.51388 c -0.0974,0 -0.17637,-0.079 -0.17637,-0.17639 v -15.50105 c 0,-0.0977 0.079,-0.17639 0.17637,-0.17639 h 1.07598 c 0.0974,0 0.1764,0.0787 0.1764,0.17639 v 14.35876 h 3.8636 c 0.0974,0 0.1764,0.0787 0.1764,0.17639 v 0.9659 c 0,0.0974 -0.079,0.17639 -0.1764,0.17639 z" /><path
     inkscape:connector-curvature="0"
     id="path176"
     style="fill:#29abe2;fill-opacity:1;fill-rule:nonzero;stroke:none;stroke-width:0.35277775"
     d="m 337.4386,120.48352 h -1.07595 c -0.19474,0 -0.3528,0.15804 -0.3528,0.35277 v 15.50106 c 0,0.19508 0.15806,0.35278 0.3528,0.35278 h 5.11598 c 0.19473,0 0.35277,-0.1577 0.35277,-0.35278 v -0.96591 c 0,-0.19508 -0.15804,-0.35277 -0.35277,-0.35277 h -3.68723 v -14.18238 c 0,-0.19473 -0.1577,-0.35277 -0.3528,-0.35277 m 0,0.35277 v 14.53515 h 4.04003 v 0.96591 h -5.11598 v -15.50106 h 1.07595" /><path
     inkscape:connector-curvature="0"
     id="path180"
     style="fill:#1692b1;fill-opacity:1;fill-rule:nonzero;stroke:none;stroke-width:0.35277775"
     d="m 349.33863,136.51388 c -0.0974,0 -0.17637,-0.079 -0.17637,-0.17639 v -15.50105 c 0,-0.0977 0.079,-0.17639 0.17637,-0.17639 h 5.48958 c 0.0974,0 0.1764,0.0787 0.1764,0.17639 v 0.9659 c 0,0.0974 -0.079,0.17639 -0.1764,0.17639 h -4.25908 v 5.6194 h 3.46816 c 0.0977,0 0.1764,0.0787 0.1764,0.17638 v 0.94404 c 0,0.0977 -0.0787,0.17639 -0.1764,0.17639 h -3.46816 v 6.30026 h 4.23685 c 0.0974,0 0.1764,0.0787 0.1764,0.17639 v 0.9659 c 0,0.0974 -0.079,0.17639 -0.1764,0.17639 z" /><path
     inkscape:connector-curvature="0"
     id="path184"
     style="fill:#29abe2;fill-opacity:1;fill-rule:nonzero;stroke:none;stroke-width:0.35277775"
     d="m 354.82808,120.48352 h -5.48958 c -0.19436,0 -0.35277,0.15804 -0.35277,0.35277 v 15.50106 c 0,0.19508 0.15841,0.35278 0.35277,0.35278 h 5.46772 c 0.19436,0 0.35243,-0.1577 0.35243,-0.35278 v -0.96591 c 0,-0.19508 -0.15807,-0.35277 -0.35243,-0.35277 h -4.06048 v -5.94713 h 3.29176 c 0.19473,0 0.3528,-0.15805 0.3528,-0.35278 v -0.94439 c 0,-0.19473 -0.15807,-0.35277 -0.3528,-0.35277 h -3.29176 v -5.26662 h 4.08234 c 0.19473,0 0.35279,-0.1577 0.35279,-0.35278 v -0.96591 c 0,-0.19473 -0.15806,-0.35277 -0.35279,-0.35277 m 0,0.35277 v 0.96591 h -4.43511 v 5.97217 h 3.64453 v 0.94439 h -3.64453 v 6.65268 h 4.41325 v 0.96591 h -5.46772 v -15.50106 h 5.48958" /><path
     inkscape:connector-curvature="0"
     id="path188"
     style="fill:#1692b1;fill-opacity:1;fill-rule:nonzero;stroke:none;stroke-width:0.35277775"
     d="m 364.4874,136.51388 c -0.0974,0 -0.17637,-0.079 -0.17637,-0.17639 v -15.50105 c 0,-0.0977 0.079,-0.17639 0.17637,-0.17639 h 1.12009 c 0.0974,0 0.17637,0.0787 0.17637,0.17639 v 15.50105 c 0,0.0974 -0.079,0.17639 -0.17637,0.17639 z" /><path
     inkscape:connector-curvature="0"
     id="path192"
     style="fill:#29abe2;fill-opacity:1;fill-rule:nonzero;stroke:none;stroke-width:0.35277775"
     d="m 365.60741,120.48352 h -1.12006 c -0.19473,0 -0.35277,0.15804 -0.35277,0.35277 v 15.50106 c 0,0.19508 0.15804,0.35278 0.35277,0.35278 h 1.12006 c 0.19474,0 0.3528,-0.1577 0.3528,-0.35278 v -15.50106 c 0,-0.19473 -0.15806,-0.35277 -0.3528,-0.35277 m 0,15.85383 h -1.12006 v -15.50106 h 1.12006 z" /><path
     inkscape:connector-curvature="0"
     id="path196"
     style="fill:#b3b3b3;fill-opacity:1;fill-rule:nonzero;stroke:none;stroke-width:0.35277775"
     d="m 352.58324,149.59181 2.51143,-3.29318 c 0.2459,-0.31609 0.35137,-0.61489 0.35137,-0.97508 0,-0.74647 -0.43921,-1.24707 -1.20296,-1.24707 -0.65019,0 -1.20332,0.36901 -1.20332,1.24707 h -0.44805 c 0,-0.93062 0.62373,-1.64218 1.65137,-1.64218 1.00119,0 1.651,0.65864 1.651,1.64218 0,0.46567 -0.11395,0.79093 -0.4304,1.20333 l -2.34455,3.06493 h 2.77495 v 0.39511 h -3.31084 z" /><path
     inkscape:connector-curvature="0"
     id="path200"
     style="fill:#b3b3b3;fill-opacity:1;fill-rule:nonzero;stroke:none;stroke-width:0.35277775"
     d="m 358.06337,144.07655 c -0.78173,0 -1.19448,0.57997 -1.19448,1.31728 v 2.93334 c 0,0.73801 0.41275,1.31727 1.19448,1.31727 0.78142,0 1.19452,-0.57926 1.19452,-1.31727 v -2.93334 c 0,-0.73731 -0.4131,-1.31728 -1.19452,-1.31728 m 0,5.963 c -0.95742,0 -1.64216,-0.69356 -1.64216,-1.66828 v -3.02119 c 0,-0.97473 0.68474,-1.66864 1.64216,-1.66864 0.96592,0 1.64219,0.69391 1.64219,1.66864 v 3.02119 c 0,0.97472 -0.67627,1.66828 -1.64219,1.66828" /><path
     inkscape:connector-curvature="0"
     id="path204"
     style="fill:#808080;fill-opacity:1;fill-rule:nonzero;stroke:none;stroke-width:0.35277775"
     d="m 360.29405,149.59181 2.5118,-3.29318 c 0.24553,-0.31609 0.35099,-0.61489 0.35099,-0.97508 0,-0.74647 -0.43884,-1.24707 -1.20295,-1.24707 -0.64982,0 -1.20298,0.36901 -1.20298,1.24707 h -0.44839 c 0,-0.93062 0.62373,-1.64218 1.65137,-1.64218 1.00118,0 1.651,0.65864 1.651,1.64218 0,0.46567 -0.11396,0.79093 -0.4304,1.20333 l -2.34455,3.06493 h 2.77495 v 0.39511 h -3.31084 z" /><path
     inkscape:connector-curvature="0"
     id="path208"
     style="fill:#808080;fill-opacity:1;fill-rule:nonzero;stroke:none;stroke-width:0.35277775"
     d="m 365.15921,144.29429 -1.13276,1.00118 v -0.53587 l 1.13276,-0.97472 h 0.44839 v 6.25263 h -0.44839 z" /><path
     inkscape:connector-curvature="0"
     id="path212"
     style="fill:#808080;fill-opacity:1;fill-rule:nonzero;stroke:none;stroke-width:0.35277775"
     d="m 279.52037,168.02099 c -0.34855,0 -0.67134,-0.13335 -0.91229,-0.3743 -0.33266,-0.33302 -0.33796,-0.6611 -0.33796,-1.4806 0,-0.82515 0.005,-1.14794 0.33796,-1.48061 0.24095,-0.24095 0.56374,-0.3743 0.91229,-0.3743 0.65546,0 1.11689,0.40993 1.24001,1.0661 h -0.28187 c -0.10795,-0.50765 -0.46637,-0.81986 -0.95814,-0.81986 -0.26141,0 -0.5073,0.0974 -0.6918,0.28152 -0.26141,0.2614 -0.28187,0.54821 -0.28187,1.32715 0,0.77858 0.0204,1.06574 0.28187,1.32715 0.1845,0.18415 0.43039,0.28187 0.6918,0.28187 0.49177,0 0.86042,-0.31257 0.96802,-0.81986 h 0.27199 c -0.12312,0.65582 -0.59443,1.06574 -1.24001,1.06574" /><path
     inkscape:connector-curvature="0"
     id="path216"
     style="fill:#808080;fill-opacity:1;fill-rule:nonzero;stroke:none;stroke-width:0.35277775"
     d="m 283.76746,164.83911 c -0.1845,-0.18415 -0.43074,-0.28187 -0.6918,-0.28187 -0.26141,0 -0.50694,0.0977 -0.69179,0.28187 -0.26106,0.26106 -0.28188,0.54822 -0.28188,1.32715 0,0.77858 0.0208,1.06539 0.28188,1.3268 0.18485,0.1845 0.43038,0.28187 0.69179,0.28187 0.26106,0 0.5073,-0.0974 0.6918,-0.28187 0.26106,-0.26141 0.28187,-0.54822 0.28187,-1.3268 0,-0.77893 -0.0208,-1.06609 -0.28187,-1.32715 m 0.22013,2.80776 c -0.24095,0.24095 -0.56374,0.3743 -0.91193,0.3743 -0.34819,0 -0.67098,-0.13335 -0.91193,-0.3743 -0.33302,-0.33302 -0.33831,-0.66111 -0.33831,-1.48061 0,-0.82515 0.005,-1.14794 0.33831,-1.48096 0.24095,-0.24059 0.56374,-0.37394 0.91193,-0.37394 0.34819,0 0.67098,0.13335 0.91193,0.37394 0.33303,0.33302 0.33832,0.65581 0.33832,1.48096 0,0.8195 -0.005,1.14759 -0.33832,1.48061" /><path
     inkscape:connector-curvature="0"
     id="path220"
     style="fill:#808080;fill-opacity:1;fill-rule:nonzero;stroke:none;stroke-width:0.35277775"
     d="m 286.4774,168.02099 c -0.53798,0 -0.88124,-0.14887 -1.21426,-0.48154 l 0.19438,-0.19473 c 0.32808,0.32773 0.60007,0.43039 1.0354,0.43039 0.57891,0 0.93733,-0.27658 0.93733,-0.75318 0,-0.22049 -0.0614,-0.39476 -0.19967,-0.51259 -0.13829,-0.1076 -0.22542,-0.15381 -0.52775,-0.19473 l -0.4251,-0.0663 c -0.27693,-0.0413 -0.49213,-0.12841 -0.65088,-0.2667 -0.18944,-0.15875 -0.28716,-0.38417 -0.28716,-0.67133 0,-0.61489 0.43074,-0.99907 1.13242,-0.99907 0.4512,0 0.73801,0.12312 1.05057,0.39476 l -0.17956,0.17921 c -0.21484,-0.20496 -0.45579,-0.33831 -0.88653,-0.33831 -0.53235,0 -0.84491,0.28716 -0.84491,0.75318 0,0.21025 0.0614,0.369 0.18945,0.47695 0.12805,0.10725 0.33831,0.18945 0.54292,0.22507 l 0.39476,0.0614 c 0.34325,0.0462 0.502,0.11289 0.65052,0.24095 0.19967,0.16404 0.3175,0.41521 0.3175,0.70731 0,0.61984 -0.46602,1.0093 -1.22943,1.0093" /><path
     inkscape:connector-curvature="0"
     id="path224"
     style="fill:#808080;fill-opacity:1;fill-rule:nonzero;stroke:none;stroke-width:0.35277775"
     d="m 289.78157,167.99002 h -0.27658 v -3.40219 h -1.0862 v -0.24589 h 2.45427 v 0.24589 h -1.09149 z" /><path
     inkscape:connector-curvature="0"
     id="path228"
     style="fill:#808080;fill-opacity:1;fill-rule:nonzero;stroke:none;stroke-width:0.35277775"
     d="m 291.75388,166.85796 h 1.52682 l -0.76341,-2.14701 z m 1.61396,0.24553 h -1.70074 l -0.31786,0.88653 h -0.29703 l 1.34196,-3.64808 h 0.24624 l 1.34232,3.64808 h -0.29704 z" /><path
     inkscape:connector-curvature="0"
     id="path232"
     style="fill:#808080;fill-opacity:1;fill-rule:nonzero;stroke:none;stroke-width:0.35277775"
     d="m 299.35652,164.58797 h -1.07597 v 1.47567 h 1.07597 c 0.47167,0 0.80434,-0.23072 0.80434,-0.73766 0,-0.50764 -0.33267,-0.73801 -0.80434,-0.73801 m -0.0716,1.72156 h -1.00436 v 1.68063 h -0.27658 v -3.64807 h 1.38889 c 0.59408,0 1.04493,0.34325 1.04493,0.9786 0,0.54822 -0.32773,0.89676 -0.84032,0.98355 l 0.88159,1.68592 h -0.32279 z" /><path
     inkscape:connector-curvature="0"
     id="path234"
     style="fill:#808080;fill-opacity:1;fill-rule:nonzero;stroke:none;stroke-width:0.35277775"
     d="m 301.62616,164.34191 h 0.27658 v 3.64807 h -0.27658 z" /><path
     inkscape:connector-curvature="0"
     id="path238"
     style="fill:#808080;fill-opacity:1;fill-rule:nonzero;stroke:none;stroke-width:0.35277775"
     d="m 304.39258,168.02099 c -0.3482,0 -0.67099,-0.13335 -0.91194,-0.3743 -0.33302,-0.33302 -0.33831,-0.6611 -0.33831,-1.4806 0,-0.82515 0.005,-1.14794 0.33831,-1.48061 0.24095,-0.24095 0.56374,-0.3743 0.91194,-0.3743 0.65581,0 1.11689,0.40993 1.24001,1.0661 h -0.28187 c -0.1076,-0.50765 -0.46602,-0.81986 -0.95814,-0.81986 -0.26106,0 -0.50695,0.0974 -0.6918,0.28152 -0.26106,0.2614 -0.28152,0.54821 -0.28152,1.32715 0,0.77858 0.0205,1.06574 0.28152,1.32715 0.18485,0.18415 0.43074,0.28187 0.6918,0.28187 0.49212,0 0.86077,-0.31257 0.96837,-0.81986 h 0.27164 c -0.12312,0.65582 -0.59443,1.06574 -1.24001,1.06574" /><path
     inkscape:connector-curvature="0"
     id="path242"
     style="fill:#808080;fill-opacity:1;fill-rule:nonzero;stroke:none;stroke-width:0.35277775"
     d="m 307.00531,166.85796 h 1.52682 l -0.76341,-2.14701 z m 1.61396,0.24553 h -1.7011 l -0.3175,0.88653 h -0.29739 l 1.34232,-3.64808 h 0.24624 l 1.34232,3.64808 h -0.29704 z" /><path
     inkscape:connector-curvature="0"
     id="path246"
     style="fill:#808080;fill-opacity:1;fill-rule:nonzero;stroke:none;stroke-width:0.35277775"
     d="m 336.62932,156.60017 c -0.007,0.007 -0.013,0.0141 -0.0193,0.0198 -0.006,0.005 -0.0145,0.008 -0.0254,0.008 -0.0135,0 -0.0321,-0.0102 -0.0557,-0.031 -0.0241,-0.0205 -0.055,-0.0434 -0.0945,-0.0677 -0.0395,-0.0247 -0.0885,-0.0476 -0.14745,-0.0684 -0.0593,-0.0205 -0.13055,-0.0307 -0.2145,-0.0307 -0.11642,0 -0.21979,0.0233 -0.31009,0.0702 -0.0903,0.0469 -0.16616,0.11394 -0.22789,0.20179 -0.0614,0.0875 -0.10866,0.19367 -0.14112,0.31785 -0.0328,0.12453 -0.049,0.26423 -0.049,0.4198 0,0.16122 0.0167,0.3041 0.0501,0.42898 0.0332,0.12418 0.0804,0.22895 0.14113,0.31433 0.061,0.0857 0.13475,0.15028 0.22154,0.19473 0.0868,0.0448 0.18309,0.0674 0.28892,0.0674 0.0977,0 0.17921,-0.0134 0.24482,-0.0395 0.066,-0.0261 0.12031,-0.0547 0.16299,-0.0854 0.0427,-0.0307 0.0766,-0.0589 0.1016,-0.085 0.0246,-0.0261 0.0448,-0.0395 0.06,-0.0395 0.0177,0 0.031,0.008 0.0406,0.0233 l 0.0529,0.0737 c -0.031,0.0462 -0.0705,0.0893 -0.11782,0.12912 -0.0476,0.0399 -0.10125,0.0744 -0.16052,0.10371 -0.0596,0.0293 -0.12451,0.0519 -0.19436,0.0677 -0.0699,0.0162 -0.14288,0.0247 -0.21839,0.0247 -0.12911,0 -0.24693,-0.0265 -0.35277,-0.0797 -0.10654,-0.0529 -0.19825,-0.12983 -0.27482,-0.23072 -0.0762,-0.10054 -0.13581,-0.22402 -0.17886,-0.37007 -0.0427,-0.14569 -0.0638,-0.31185 -0.0638,-0.49776 0,-0.17534 0.0201,-0.33514 0.061,-0.47943 0.0406,-0.14464 0.0998,-0.26917 0.1778,-0.37359 0.0776,-0.10442 0.17356,-0.18556 0.28644,-0.24342 0.11324,-0.0575 0.24341,-0.0864 0.38946,-0.0864 0.13161,0 0.24837,0.024 0.35102,0.0716 0.10232,0.0476 0.19122,0.11218 0.26742,0.19367 z" /><path
     inkscape:connector-curvature="0"
     id="path250"
     style="fill:#808080;fill-opacity:1;fill-rule:nonzero;stroke:none;stroke-width:0.35277775"
     d="m 338.52829,158.44466 c 0.12065,0 0.22614,-0.0233 0.31609,-0.0702 0.0903,-0.0473 0.16545,-0.1143 0.22577,-0.20179 0.0603,-0.0878 0.10549,-0.19332 0.13547,-0.31715 0.0296,-0.12382 0.0448,-0.26246 0.0448,-0.41627 0,-0.15205 -0.0151,-0.29034 -0.0448,-0.41487 -0.03,-0.12453 -0.0751,-0.23107 -0.13547,-0.31927 -0.0603,-0.0885 -0.13546,-0.15627 -0.22577,-0.20425 -0.09,-0.0476 -0.19544,-0.0713 -0.31609,-0.0713 -0.12065,0 -0.22612,0.0236 -0.31607,0.0713 -0.09,0.048 -0.16547,0.11571 -0.2258,0.20425 -0.0603,0.0882 -0.10546,0.19474 -0.13615,0.31927 -0.0303,0.12453 -0.0459,0.26282 -0.0459,0.41487 0,0.15381 0.0156,0.29245 0.0459,0.41627 0.0307,0.12383 0.0758,0.22931 0.13615,0.31715 0.0603,0.0875 0.13584,0.15452 0.2258,0.20179 0.0899,0.0469 0.19542,0.0702 0.31607,0.0702 m 0,-2.18792 c 0.14499,0 0.27482,0.0282 0.38946,0.084 0.11467,0.0561 0.21098,0.13581 0.28999,0.23883 0.0783,0.10301 0.13829,0.22683 0.17991,0.37253 0.0413,0.14499 0.0618,0.30762 0.0618,0.48719 0,0.17991 -0.0204,0.34219 -0.0618,0.48648 -0.0416,0.14428 -0.1016,0.26846 -0.17991,0.37112 -0.079,0.10301 -0.17532,0.18239 -0.28999,0.23777 -0.11464,0.055 -0.24447,0.0829 -0.38946,0.0829 -0.14499,0 -0.27446,-0.0279 -0.38947,-0.0829 -0.1143,-0.0554 -0.2113,-0.13476 -0.29067,-0.23777 -0.079,-0.10266 -0.13936,-0.22684 -0.18063,-0.37112 -0.0416,-0.14429 -0.0621,-0.30657 -0.0621,-0.48648 0,-0.17957 0.0204,-0.3422 0.0621,-0.48719 0.0413,-0.1457 0.1016,-0.26952 0.18063,-0.37253 0.0794,-0.10302 0.17637,-0.18274 0.29067,-0.23883 0.11501,-0.0557 0.24448,-0.084 0.38947,-0.084" /><path
     inkscape:connector-curvature="0"
     id="path254"
     style="fill:#808080;fill-opacity:1;fill-rule:nonzero;stroke:none;stroke-width:0.35277775"
     d="m 340.56777,158.58729 v -2.29376 h 0.10584 c 0.0349,0 0.0554,0.0194 0.061,0.0575 l 0.018,0.34608 c 0.0921,-0.13194 0.19968,-0.23848 0.32208,-0.31962 0.12276,-0.0804 0.25966,-0.12065 0.41029,-0.12065 0.11078,0 0.20849,0.0198 0.2935,0.0596 0.0847,0.0402 0.15489,0.0977 0.21026,0.17322 0.0557,0.0755 0.0977,0.1658 0.12629,0.27163 0.0286,0.10619 0.0427,0.22613 0.0427,0.35984 v 1.46614 h -0.19333 v -1.46614 c 0,-0.2152 -0.0434,-0.38382 -0.12983,-0.50589 -0.0868,-0.12241 -0.21976,-0.18309 -0.39862,-0.18309 -0.13301,0 -0.25649,0.0385 -0.37007,0.11642 -0.11396,0.0773 -0.21556,0.1838 -0.30515,0.31891 v 1.71979 z" /><path
     inkscape:connector-curvature="0"
     id="path258"
     style="fill:#808080;fill-opacity:1;fill-rule:nonzero;stroke:none;stroke-width:0.35277775"
     d="m 343.45269,158.58729 v -2.05387 l -0.2847,-0.0208 c -0.0392,-0.003 -0.0589,-0.0222 -0.0589,-0.0579 v -0.0896 h 0.34359 v -0.29068 c 0,-0.13053 0.0151,-0.24519 0.0448,-0.34467 0.03,-0.0991 0.072,-0.18168 0.12594,-0.24765 0.0543,-0.066 0.11959,-0.11571 0.19648,-0.14887 0.0766,-0.0328 0.16086,-0.0494 0.25331,-0.0494 0.0416,0 0.0839,0.004 0.12663,0.0127 0.0427,0.008 0.0808,0.0201 0.1129,0.0356 l -0.006,0.10583 c -0.003,0.0219 -0.014,0.0325 -0.0384,0.0325 -0.0161,0 -0.0385,-0.002 -0.0663,-0.007 -0.0279,-0.005 -0.0621,-0.007 -0.10266,-0.007 -0.0663,0 -0.12769,0.0109 -0.18378,0.0335 -0.0565,0.0222 -0.10478,0.0579 -0.14571,0.10689 -0.0406,0.0494 -0.072,0.11359 -0.0942,0.19261 -0.0225,0.0794 -0.0339,0.17639 -0.0339,0.2914 v 0.28398 h 0.65688 v 0.16369 h -0.65264 v 2.05846 z" /><path
     inkscape:connector-curvature="0"
     id="path262"
     style="fill:#808080;fill-opacity:1;fill-rule:nonzero;stroke:none;stroke-width:0.35277775"
     d="m 346.06235,156.42035 c -0.1044,0 -0.19791,0.0187 -0.28009,0.0554 -0.0825,0.037 -0.15383,0.09 -0.21415,0.15875 -0.0603,0.0695 -0.10901,0.1524 -0.14605,0.24906 -0.0374,0.097 -0.0621,0.20567 -0.0741,0.32526 h 1.33138 c 0,-0.12276 -0.0148,-0.23318 -0.0444,-0.3309 -0.03,-0.0974 -0.0716,-0.18027 -0.12594,-0.24765 -0.0543,-0.0677 -0.11888,-0.1196 -0.19474,-0.15593 -0.0758,-0.0356 -0.1598,-0.054 -0.25188,-0.054 m -0.003,-0.16369 c 0.11395,0 0.21944,0.0226 0.31644,0.067 0.0967,0.0448 0.18063,0.10936 0.25225,0.19474 0.0713,0.0854 0.12663,0.19014 0.1665,0.31467 0.0399,0.12418 0.06,0.26741 0.06,0.42898 0,0.0335 -0.004,0.0568 -0.013,0.0688 -0.009,0.0124 -0.0225,0.0187 -0.0416,0.0187 h -1.46016 v 0.0437 c 0,0.17216 0.0177,0.3235 0.0533,0.45403 0.0349,0.13088 0.085,0.24059 0.14991,0.32879 0.0653,0.0885 0.14394,0.15487 0.23601,0.19932 0.0921,0.0444 0.19545,0.0667 0.30904,0.0667 0.1016,0 0.18981,-0.0127 0.26424,-0.0381 0.0748,-0.0251 0.13758,-0.0536 0.18803,-0.085 0.0512,-0.0318 0.0914,-0.06 0.121,-0.0854 0.03,-0.0254 0.0519,-0.0381 0.0653,-0.0381 0.0177,0 0.0314,0.008 0.0406,0.0233 l 0.0529,0.0737 c -0.0325,0.0459 -0.0755,0.0893 -0.12912,0.12912 -0.0536,0.0399 -0.11324,0.0741 -0.1792,0.10231 -0.0653,0.0286 -0.13584,0.0511 -0.21098,0.0681 -0.0755,0.0169 -0.15097,0.0258 -0.22683,0.0258 -0.13829,0 -0.26424,-0.0279 -0.37817,-0.0822 -0.11395,-0.0543 -0.21166,-0.13406 -0.29315,-0.23883 -0.0819,-0.10442 -0.14431,-0.23213 -0.1891,-0.38382 -0.0444,-0.15099 -0.067,-0.32421 -0.067,-0.51965 0,-0.16439 0.0209,-0.31644 0.0621,-0.45508 0.0413,-0.13934 0.10126,-0.25929 0.17923,-0.35983 0.0779,-0.1009 0.1732,-0.17956 0.28644,-0.23636 0.11324,-0.0568 0.24167,-0.0854 0.38523,-0.0854" /><path
     inkscape:connector-curvature="0"
     id="path266"
     style="fill:#808080;fill-opacity:1;fill-rule:nonzero;stroke:none;stroke-width:0.35277775"
     d="m 347.98471,158.58729 v -2.29376 h 0.1016 c 0.0233,0 0.0399,0.006 0.0501,0.0162 0.0103,0.0106 0.0159,0.0293 0.0172,0.0554 l 0.0159,0.48401 c 0.0653,-0.18592 0.15206,-0.33161 0.2607,-0.43674 0.10832,-0.10548 0.24167,-0.15804 0.40042,-0.15804 0.061,0 0.1171,0.007 0.16862,0.0219 0.0515,0.0145 0.10054,0.036 0.14639,0.0635 l -0.0262,0.1524 c -0.004,0.0243 -0.018,0.0367 -0.0406,0.0367 -0.008,0 -0.0198,-0.003 -0.0349,-0.009 -0.0148,-0.006 -0.0335,-0.0131 -0.0557,-0.0208 -0.0225,-0.008 -0.0501,-0.0148 -0.0825,-0.0208 -0.0325,-0.006 -0.0699,-0.009 -0.11184,-0.009 -0.15311,0 -0.27868,0.0536 -0.37676,0.16122 -0.0988,0.1076 -0.17815,0.26282 -0.23919,0.46567 v 1.49154 z" /><path
     inkscape:connector-curvature="0"
     id="path270"
     style="fill:#808080;fill-opacity:1;fill-rule:nonzero;stroke:none;stroke-width:0.35277775"
     d="m 350.97471,156.42035 c -0.1044,0 -0.19791,0.0187 -0.28046,0.0554 -0.0822,0.037 -0.1538,0.09 -0.21378,0.15875 -0.0603,0.0695 -0.10935,0.1524 -0.1464,0.24906 -0.0374,0.097 -0.0617,0.20567 -0.0741,0.32526 h 1.33173 c 0,-0.12276 -0.0148,-0.23318 -0.0448,-0.3309 -0.0296,-0.0974 -0.0716,-0.18027 -0.12559,-0.24765 -0.0543,-0.0677 -0.11922,-0.1196 -0.19508,-0.15593 -0.0759,-0.0356 -0.15946,-0.054 -0.25154,-0.054 m -0.003,-0.16369 c 0.11395,0 0.21907,0.0226 0.31644,0.067 0.0967,0.0448 0.18063,0.10936 0.25225,0.19474 0.0709,0.0854 0.12629,0.19014 0.1665,0.31467 0.0399,0.12418 0.06,0.26741 0.06,0.42898 0,0.0335 -0.004,0.0568 -0.0135,0.0688 -0.008,0.0124 -0.0225,0.0187 -0.0413,0.0187 h -1.46016 v 0.0437 c 0,0.17216 0.0177,0.3235 0.0529,0.45403 0.0353,0.13088 0.0854,0.24059 0.15028,0.32879 0.0653,0.0885 0.14393,0.15487 0.23601,0.19932 0.0921,0.0444 0.1951,0.0667 0.30903,0.0667 0.1016,0 0.18944,-0.0127 0.26424,-0.0381 0.0744,-0.0251 0.13724,-0.0536 0.18804,-0.085 0.0508,-0.0318 0.091,-0.06 0.12099,-0.0854 0.0296,-0.0254 0.0515,-0.0381 0.0653,-0.0381 0.0177,0 0.031,0.008 0.0406,0.0233 l 0.0526,0.0737 c -0.0321,0.0459 -0.0751,0.0893 -0.12877,0.12912 -0.0536,0.0399 -0.11324,0.0741 -0.17921,0.10231 -0.0656,0.0286 -0.13583,0.0511 -0.21132,0.0681 -0.0751,0.0169 -0.15063,0.0258 -0.22683,0.0258 -0.13795,0 -0.26423,-0.0279 -0.37819,-0.0822 -0.11359,-0.0543 -0.21167,-0.13406 -0.29279,-0.23883 -0.0819,-0.10442 -0.14465,-0.23213 -0.1891,-0.38382 -0.0444,-0.15099 -0.067,-0.32421 -0.067,-0.51965 0,-0.16439 0.0209,-0.31644 0.0621,-0.45508 0.0413,-0.13934 0.10091,-0.25929 0.17885,-0.35983 0.0783,-0.1009 0.17357,-0.17956 0.28681,-0.23636 0.11324,-0.0568 0.24167,-0.0854 0.38524,-0.0854" /><path
     inkscape:connector-curvature="0"
     id="path274"
     style="fill:#808080;fill-opacity:1;fill-rule:nonzero;stroke:none;stroke-width:0.35277775"
     d="m 352.89707,158.58729 v -2.29376 h 0.10583 c 0.0349,0 0.0554,0.0194 0.061,0.0575 l 0.018,0.34608 c 0.0924,-0.13194 0.19968,-0.23848 0.32208,-0.31962 0.12314,-0.0804 0.25966,-0.12065 0.41029,-0.12065 0.11078,0 0.20883,0.0198 0.2935,0.0596 0.0847,0.0402 0.15489,0.0977 0.21026,0.17322 0.0561,0.0755 0.0981,0.1658 0.12629,0.27163 0.0286,0.10619 0.0427,0.22613 0.0427,0.35984 v 1.46614 h -0.19298 v -1.46614 c 0,-0.2152 -0.0434,-0.38382 -0.13018,-0.50589 -0.0868,-0.12241 -0.21976,-0.18309 -0.39862,-0.18309 -0.13301,0 -0.25612,0.0385 -0.37007,0.11642 -0.11396,0.0773 -0.21556,0.1838 -0.3048,0.31891 v 1.71979 z" /><path
     inkscape:connector-curvature="0"
     id="path278"
     style="fill:#808080;fill-opacity:1;fill-rule:nonzero;stroke:none;stroke-width:0.35277775"
     d="m 357.0388,156.60017 c -0.007,0.007 -0.013,0.0141 -0.0193,0.0198 -0.006,0.005 -0.0146,0.008 -0.0254,0.008 -0.0135,0 -0.0321,-0.0102 -0.0557,-0.031 -0.0241,-0.0205 -0.055,-0.0434 -0.0949,-0.0677 -0.0392,-0.0247 -0.0882,-0.0476 -0.14711,-0.0684 -0.0593,-0.0205 -0.13054,-0.0307 -0.2145,-0.0307 -0.11676,0 -0.22013,0.0233 -0.31009,0.0702 -0.0903,0.0469 -0.16616,0.11394 -0.22788,0.20179 -0.0614,0.0875 -0.10867,0.19367 -0.14113,0.31785 -0.0328,0.12453 -0.049,0.26423 -0.049,0.4198 0,0.16122 0.0167,0.3041 0.0501,0.42898 0.0332,0.12418 0.0804,0.22895 0.14112,0.31433 0.061,0.0857 0.13476,0.15028 0.22154,0.19473 0.0868,0.0448 0.18309,0.0674 0.28893,0.0674 0.0974,0 0.1792,-0.0134 0.24481,-0.0395 0.066,-0.0261 0.12031,-0.0547 0.16264,-0.0854 0.0427,-0.0307 0.0769,-0.0589 0.10195,-0.085 0.0246,-0.0261 0.0448,-0.0395 0.06,-0.0395 0.0177,0 0.031,0.008 0.0406,0.0233 l 0.0529,0.0737 c -0.031,0.0462 -0.0709,0.0893 -0.11782,0.12912 -0.0476,0.0399 -0.10126,0.0744 -0.16053,0.10371 -0.0599,0.0293 -0.12451,0.0519 -0.19436,0.0677 -0.0699,0.0162 -0.14287,0.0247 -0.21873,0.0247 -0.12877,0 -0.24659,-0.0265 -0.35242,-0.0797 -0.10655,-0.0529 -0.19826,-0.12983 -0.27483,-0.23072 -0.0765,-0.10054 -0.13615,-0.22402 -0.17886,-0.37007 -0.043,-0.14569 -0.0642,-0.31185 -0.0642,-0.49776 0,-0.17534 0.0204,-0.33514 0.0614,-0.47943 0.0406,-0.14464 0.0998,-0.26917 0.1778,-0.37359 0.0776,-0.10442 0.17357,-0.18556 0.28644,-0.24342 0.11324,-0.0575 0.24307,-0.0864 0.38946,-0.0864 0.13161,0 0.24837,0.024 0.35068,0.0716 0.10229,0.0476 0.19156,0.11218 0.26739,0.19367 z" /><path
     inkscape:connector-curvature="0"
     id="path280"
     style="fill:#808080;fill-opacity:1;fill-rule:nonzero;stroke:none;stroke-width:0.35277775"
     d="m 358.41704,158.5874 h -0.19298 v -2.29377 h 0.19298 z m 0.0857,-3.08434 c 0,0.0275 -0.005,0.0533 -0.0151,0.0769 -0.0106,0.024 -0.0236,0.0448 -0.0399,0.0635 -0.0161,0.0187 -0.0353,0.0332 -0.0568,0.0437 -0.022,0.0106 -0.0448,0.0162 -0.0691,0.0162 -0.0243,0 -0.0476,-0.006 -0.0692,-0.0162 -0.022,-0.0106 -0.0409,-0.0251 -0.0571,-0.0437 -0.0159,-0.0187 -0.0293,-0.0395 -0.0385,-0.0635 -0.01,-0.0236 -0.0145,-0.0494 -0.0145,-0.0769 0,-0.0279 0.005,-0.0543 0.0145,-0.0797 0.009,-0.0254 0.0225,-0.0473 0.0385,-0.066 0.0161,-0.018 0.0353,-0.0328 0.0571,-0.0437 0.0214,-0.0106 0.0448,-0.0159 0.0692,-0.0159 0.0243,0 0.0472,0.005 0.0691,0.0159 0.0214,0.0109 0.0406,0.0257 0.0568,0.0437 0.0161,0.0187 0.0293,0.0406 0.0399,0.066 0.01,0.0254 0.0151,0.0519 0.0151,0.0797" /><path
     inkscape:connector-curvature="0"
     id="path284"
     style="fill:#808080;fill-opacity:1;fill-rule:nonzero;stroke:none;stroke-width:0.35277775"
     d="m 360.22068,158.46533 c 0.0787,0 0.151,-0.01 0.21662,-0.0289 0.0656,-0.0194 0.127,-0.0462 0.18309,-0.0808 0.0561,-0.0342 0.10866,-0.0755 0.15734,-0.12312 0.049,-0.0476 0.097,-0.0991 0.14428,-0.15452 v -0.59725 c -0.19261,0.006 -0.35771,0.0226 -0.49707,0.0497 -0.13864,0.0268 -0.25363,0.0632 -0.34359,0.10936 -0.09,0.0462 -0.15663,0.10125 -0.19934,0.1651 -0.0423,0.0639 -0.0638,0.13653 -0.0638,0.21767 0,0.0769 0.0114,0.14323 0.0335,0.19967 0.0225,0.0561 0.0519,0.10231 0.0885,0.13794 0.0367,0.0363 0.0794,0.0628 0.12772,0.0797 0.049,0.0169 0.10019,0.0254 0.15274,0.0254 m 0.81352,0.12206 c -0.0409,0 -0.066,-0.0215 -0.0752,-0.0645 l -0.0286,-0.29281 c -0.0557,0.0617 -0.11113,0.11677 -0.16582,0.16616 -0.0547,0.049 -0.11218,0.0907 -0.17179,0.12418 -0.0596,0.0342 -0.12417,0.0596 -0.19333,0.0776 -0.0688,0.0177 -0.14499,0.0265 -0.22789,0.0265 -0.0688,0 -0.13581,-0.0117 -0.20108,-0.0346 -0.0653,-0.0233 -0.12277,-0.0586 -0.17251,-0.10619 -0.0505,-0.0476 -0.0907,-0.10866 -0.12136,-0.18345 -0.0303,-0.0744 -0.0455,-0.16404 -0.0455,-0.26846 0,-0.0967 0.0241,-0.18662 0.073,-0.26952 0.0491,-0.0833 0.12526,-0.15558 0.22897,-0.21661 0.10372,-0.0617 0.2367,-0.11077 0.4004,-0.14746 0.16333,-0.0374 0.35949,-0.0586 0.58843,-0.0649 v -0.23989 c 0,-0.21166 -0.0402,-0.375 -0.12065,-0.48965 -0.0808,-0.11466 -0.20037,-0.17181 -0.35912,-0.17181 -0.0974,0 -0.18063,0.0152 -0.24908,0.0459 -0.0681,0.031 -0.12663,0.0649 -0.17356,0.1016 -0.0476,0.0371 -0.0861,0.0706 -0.11605,0.10125 -0.0296,0.031 -0.055,0.0462 -0.0751,0.0462 -0.0272,0 -0.0476,-0.0138 -0.061,-0.0413 l -0.0346,-0.0667 c 0.10583,-0.11994 0.21661,-0.21096 0.33374,-0.27234 0.11642,-0.0614 0.24871,-0.0924 0.39617,-0.0924 0.10829,0 0.20354,0.0198 0.28469,0.0589 0.0815,0.0395 0.14851,0.0956 0.20214,0.16827 0.0536,0.073 0.0939,0.16157 0.12099,0.26529 0.0272,0.10372 0.0406,0.21943 0.0406,0.34678 v 1.49401 z" /><path
     inkscape:connector-curvature="0"
     id="path288"
     style="fill:#808080;fill-opacity:1;fill-rule:nonzero;stroke:none;stroke-width:0.35277775"
     d="m 335.48727,153.58571 -0.64804,-1.11901 h 0.37676 c 0.0265,0 0.0452,0.004 0.0571,0.0117 0.0117,0.008 0.022,0.0212 0.0314,0.0395 l 0.46284,0.84631 c 0.004,-0.0138 0.01,-0.0272 0.0151,-0.0406 0.006,-0.0134 0.0124,-0.0268 0.0201,-0.0406 l 0.42299,-0.75741 c 0.0204,-0.0392 0.0473,-0.0589 0.0801,-0.0589 h 0.36301 l -0.65548,1.10137 0.67347,1.20368 h -0.37819 c -0.0254,0 -0.0458,-0.007 -0.0614,-0.0219 -0.0156,-0.0152 -0.0282,-0.0321 -0.0385,-0.0512 l -0.47096,-0.88336 c -0.004,0.0127 -0.008,0.0247 -0.0127,0.036 -0.005,0.0109 -0.01,0.0212 -0.014,0.031 l -0.45156,0.81633 c -0.0103,0.018 -0.023,0.0349 -0.0378,0.0501 -0.0151,0.0155 -0.0339,0.0229 -0.0561,0.0229 h -0.35454 z" /><path
     inkscape:connector-curvature="0"
     id="path292"
     style="fill:#808080;fill-opacity:1;fill-rule:nonzero;stroke:none;stroke-width:0.35277775"
     d="m 337.31528,154.41806 h 0.81423 v 0.35383 h -1.1924 v -2.30505 h 0.37817 z" /><path
     inkscape:connector-curvature="0"
     id="path296"
     style="fill:#808080;fill-opacity:1;fill-rule:nonzero;stroke:none;stroke-width:0.35277775"
     d="m 337.95086,152.46674 h 0.30517 c 0.0328,0 0.0593,0.009 0.0801,0.0268 0.0204,0.0183 0.036,0.0416 0.0466,0.0702 l 0.47802,1.40653 c 0.0159,0.0455 0.031,0.0956 0.0455,0.15028 0.0148,0.055 0.0286,0.11254 0.0416,0.17321 0.0214,-0.12241 0.0483,-0.23036 0.0801,-0.32349 l 0.47659,-1.40653 c 0.009,-0.0243 0.0236,-0.0466 0.0452,-0.0667 0.0214,-0.0205 0.0483,-0.0303 0.0801,-0.0303 h 0.30514 l -0.82092,2.30505 h -0.34184 z" /><path
     inkscape:connector-curvature="0"
     id="path298"
     style="fill:#808080;fill-opacity:1;fill-rule:nonzero;stroke:none;stroke-width:0.35277775"
     d="m 340.6014,154.77175 h -0.37959 v -2.30505 h 0.37959 z" /><path
     inkscape:connector-curvature="0"
     id="path300"
     style="fill:#808080;fill-opacity:1;fill-rule:nonzero;stroke:none;stroke-width:0.35277775"
     d="m 341.51263,154.77175 h -0.3796 v -2.30505 h 0.3796 z" /><path
     inkscape:connector-curvature="0"
     id="path304"
     style="fill:#ed7530;fill-opacity:1;fill-rule:nonzero;stroke:none;stroke-width:0.35277775"
     d="m 315.21015,140.03167 c -0.18804,0 -0.44062,-0.14605 -0.55986,-0.42474 l -1.7526,-3.5045 c -0.012,-0.0236 -0.0321,-0.0564 -0.0614,-0.0737 -0.0279,-0.0173 -0.0572,-0.0257 -0.0875,-0.0257 -0.0247,0 -0.0487,0.006 -0.0716,0.0173 l -2.57316,1.28623 c -0.18521,0.0928 -0.39264,0.14181 -0.60008,0.14181 h -4.45946 c -0.50694,0 -0.96238,-0.28151 -1.18886,-0.73448 l -1.35573,-2.7118 c -0.0194,-0.0385 -0.0519,-0.0663 -0.0931,-0.0801 l -4.51308,-1.5046 c -0.0169,-0.006 -0.0342,-0.008 -0.0508,-0.008 -0.0251,0 -0.0487,0.006 -0.0713,0.0169 l -2.82433,1.41218 c -0.18345,0.0917 -0.38912,0.1404 -0.59443,0.1404 -0.16969,0 -0.33585,-0.0321 -0.49354,-0.0949 l -1.33915,-0.54645 c -0.2413,-0.0434 -0.44026,-0.28434 -0.44026,-0.56339 v -15.41674 c 0,-0.32208 0.26211,-0.5842 0.5842,-0.5842 0.0173,0 0.0342,8e-4 0.0515,0.002 0.29881,0.0257 0.5327,0.29104 0.5327,0.60325 v 15.00223 l 1.04493,0.41804 c 0.0194,0.008 0.0392,0.0113 0.0596,0.0113 0.0247,0 0.0497,-0.006 0.0713,-0.0169 l 2.81975,-1.4097 c 0.18556,-0.0924 0.39299,-0.14146 0.60007,-0.14146 0.14464,0 0.28716,0.0229 0.4244,0.0684 l 4.5085,1.50318 c 0.33655,0.11183 0.6096,0.34855 0.76835,0.6664 l 1.35255,2.70475 c 0.0293,0.0589 0.0885,0.0952 0.15416,0.0952 h 4.45205 c 0.0275,0 0.0536,-0.006 0.0773,-0.018 l 2.57352,-1.28659 c 0.18591,-0.0931 0.38558,-0.14005 0.59266,-0.14005 0.5073,0 0.96344,0.28117 1.19028,0.73449 l 1.58326,3.16618 c 0.0392,0.0787 0.11854,0.12735 0.20638,0.12735 h 49.74836 c 0.3122,0 0.57716,0.23424 0.6029,0.53269 0.014,0.16334 -0.0409,0.32632 -0.151,0.44662 -0.11041,0.12065 -0.26738,0.18944 -0.43074,0.18944 z" /><path
     inkscape:connector-curvature="0"
     id="path308"
     style="fill:#f7931e;fill-opacity:1;fill-rule:nonzero;stroke:none;stroke-width:0.35277775"
     d="m 292.6641,116.59622 v 0 c -0.2032,0 -0.39405,0.079 -0.53763,0.22261 -0.14394,0.14393 -0.22296,0.33478 -0.22296,0.53798 v 15.41674 c 0,0.35031 0.24024,0.65441 0.57679,0.73802 l 1.31128,0.53445 c 0.18062,0.0723 0.36865,0.10866 0.56127,0.10866 0.23248,0 0.46531,-0.055 0.6731,-0.15875 l 2.82398,-1.41217 4.50145,1.50495 1.34655,2.70404 c 0.25682,0.51329 0.77258,0.83185 1.34655,0.83185 h 4.45982 c 0.23424,0 0.46884,-0.055 0.67874,-0.16016 l 2.55799,-1.27882 1.7519,3.50167 c 0.13405,0.30233 0.43356,0.5207 0.7172,0.5207 h 50.28671 c 0.21273,0 0.41699,-0.09 0.56092,-0.24659 0.14356,-0.15663 0.21519,-0.36865 0.19719,-0.58138 -0.0339,-0.3884 -0.37642,-0.6932 -0.77893,-0.6932 H 315.7273 c -0.0208,0 -0.0392,-0.0116 -0.0487,-0.03 l -1.58327,-3.16654 c -0.25682,-0.51329 -0.77294,-0.83185 -1.34797,-0.83185 -0.23459,0 -0.46072,0.0533 -0.67168,0.15875 l -2.57317,1.28659 -4.45064,-8e-4 -1.34902,-2.70263 c -0.17992,-0.35948 -0.48895,-0.62759 -0.8703,-0.75459 l -4.5085,-1.50283 c -0.15523,-0.0519 -0.3168,-0.078 -0.47978,-0.078 -0.2346,0 -0.4692,0.055 -0.6791,0.16017 l -2.8194,1.4097 -0.9211,-0.37289 v -14.88405 c 0,-0.40287 -0.30445,-0.74506 -0.69356,-0.77893 -0.0226,-0.002 -0.0452,-0.003 -0.067,-0.003 m 0,0.35278 c 0.012,0 0.024,2.6e-4 0.0367,0.001 0.21413,0.0187 0.37112,0.21237 0.37112,0.42756 v 15.119 c 0,0.002 10e-4,0.003 0.003,0.004 l 1.15323,0.46143 c 0.0402,0.0162 0.0826,0.024 0.12489,0.024 0.0519,0 0.10336,-0.012 0.15063,-0.0353 l 2.8194,-1.4097 c 0.16334,-0.0818 0.34184,-0.12312 0.52141,-0.12312 0.12382,0 0.24835,0.0198 0.3683,0.0596 l 4.5085,1.50319 c 0.2921,0.097 0.52881,0.30233 0.66604,0.57785 l 1.35255,2.70475 c 0.0589,0.11818 0.17992,0.19261 0.31221,0.19261 h 4.45206 c 0.0547,0 0.10795,-0.0123 0.15663,-0.0367 l 2.57316,-1.28658 c 0.16474,-0.0825 0.34043,-0.12135 0.51364,-0.12135 0.42298,0 0.83079,0.23354 1.03223,0.63676 l 1.58362,3.16653 c 0.0688,0.13794 0.20955,0.22508 0.36407,0.22508 h 49.74871 c 0.21484,0 0.40852,0.15698 0.42685,0.37112 0.0212,0.242 -0.16862,0.4445 -0.40603,0.4445 h -50.28671 c -0.12206,0 -0.3101,-0.11254 -0.39758,-0.3175 -0.34432,-0.68862 -1.54552,-3.09104 -1.75684,-3.51402 -0.0296,-0.0589 -0.0713,-0.11183 -0.1277,-0.1457 -0.0561,-0.0346 -0.11818,-0.0515 -0.17886,-0.0515 -0.0519,0 -0.10301,0.012 -0.15064,0.036 l -2.57316,1.28623 c -0.16192,0.0811 -0.34043,0.12312 -0.52105,0.12312 h -4.45982 c -0.43956,0 -0.83432,-0.24377 -1.03081,-0.63712 l -1.35608,-2.71145 c -0.0402,-0.0804 -0.10901,-0.1404 -0.19473,-0.16898 l -4.51344,-1.50424 c -0.0349,-0.012 -0.0709,-0.0177 -0.10654,-0.0177 -0.0519,0 -0.10301,0.012 -0.15029,0.0356 l -2.82433,1.41217 c -0.16193,0.0811 -0.33832,0.12171 -0.51541,0.12171 -0.14499,0 -0.29034,-0.0275 -0.42828,-0.0822 l -1.33808,-0.54575 c -0.18803,-0.0367 -0.3302,-0.20179 -0.3302,-0.4004 v -15.41674 c 0,-0.22507 0.18238,-0.40781 0.40781,-0.40781" /><path
     inkscape:connector-curvature="0"
     id="path312"
     style="fill:#93278f;fill-opacity:1;fill-rule:nonzero;stroke:none;stroke-width:0.35277775"
     d="m 301.42049,158.2676 c -0.51506,0 -0.9779,-0.2861 -1.20827,-0.74647 l -1.4411,-2.88255 c -0.0935,-0.18803 -0.14322,-0.39829 -0.14322,-0.60784 v -1.36983 c 0,-0.0268 -0.006,-0.0536 -0.0183,-0.0776 l -1.43898,-2.87796 c -0.0293,-0.0586 -0.091,-0.097 -0.15664,-0.097 h -1.02517 c -0.26917,0 -0.52987,-0.079 -0.75424,-0.22825 l -3.8227,-2.54846 c -0.0296,-0.0201 -0.0589,-0.0296 -0.0896,-0.0296 -0.0374,0 -0.0692,0.0148 -0.0808,0.0215 -0.0434,0.0226 -0.0924,0.0681 -0.0882,0.15769 10e-4,0.0385 0.0205,0.079 0.0519,0.11042 l 1.41887,1.41923 c 0.0127,0.0123 0.0275,0.0229 0.0437,0.0314 l 2.9337,1.46685 c 0.46073,0.23001 0.74683,0.6932 0.74683,1.20826 v 0.94474 c 0,0.36336 -0.14146,0.7045 -0.39828,0.96132 l -2.70228,2.70228 c -0.25541,0.25541 -0.59478,0.39581 -0.95532,0.39581 -0.36054,0 -0.69956,-0.1404 -0.95497,-0.39581 l -2.70228,-2.70228 c -0.0332,-0.0332 -0.0773,-0.0515 -0.12418,-0.0515 h -2.67687 c -0.51506,0 -0.9779,-0.28575 -1.20792,-0.74648 l -3.17429,-6.34788 c -0.0931,-0.18697 -0.14252,-0.39582 -0.14252,-0.60395 v -2.96687 c 0,-0.36265 0.14182,-0.70414 0.39828,-0.96096 l 1.28235,-1.28235 c 0.0332,-0.0332 0.0512,-0.0769 0.0512,-0.12418 v -0.93944 c 0,-0.0667 -0.037,-0.12665 -0.0967,-0.15664 l -2.62008,-1.31021 c -0.46037,-0.23037 -0.74647,-0.69321 -0.74647,-1.20827 v -0.4953 c 0,-0.74965 0.6096,-1.3596 1.35925,-1.3596 h 2.14312 c 0.0759,0 0.14253,-0.0483 0.16616,-0.11995 l 1.30281,-3.90737 c 0.11677,-0.35101 0.37641,-0.64205 0.71261,-0.79833 0.17674,-0.0818 0.36583,-0.12312 0.56268,-0.12312 0.23671,0 0.41945,0.0593 0.50765,0.0945 0.32738,0.0864 0.68403,0.22225 0.94403,0.32174 0.1083,0.0413 0.19897,0.0759 0.26317,0.0974 0.42051,0.12595 0.57221,0.44556 0.53411,0.70521 -0.0434,0.29598 -0.31009,0.5027 -0.64841,0.5027 -0.11677,0 -0.24059,-0.0236 -0.36759,-0.0698 -0.14252,-0.0568 -1.10102,-0.39546 -1.32751,-0.43673 -0.0268,0.0201 -0.0462,0.0473 -0.0575,0.0808 l -1.30245,3.90772 c -0.18521,0.55598 -0.70344,0.92957 -1.28976,0.92957 h -2.14312 c -0.0967,0 -0.17533,0.0783 -0.17533,0.17533 v 0.49001 c 0,0.067 0.0374,0.127 0.097,0.15699 l 2.62008,1.30986 c 0.46037,0.23001 0.74648,0.69286 0.74648,1.20791 v 0.94509 c 0,0.36336 -0.14147,0.70485 -0.39793,0.96167 l -1.2827,1.282 c -0.0328,0.0328 -0.0512,0.078 -0.0512,0.12418 v 2.96439 c 0,0.0275 0.006,0.054 0.0183,0.0787 l 3.17077,6.34118 c 0.03,0.0596 0.09,0.0967 0.15663,0.0967 h 2.67159 c 0.36336,0 0.70449,0.14146 0.96131,0.39828 l 2.69382,2.69382 c 0.0282,0.0282 0.0578,0.0462 0.085,0.0526 0.0141,0.003 0.0279,0.005 0.0416,0.005 0.0444,0 0.0861,-0.0173 0.11713,-0.0487 l 2.70298,-2.70263 c 0.0332,-0.0332 0.0515,-0.0773 0.0515,-0.12417 v -0.9398 c 0,-0.0667 -0.0374,-0.12665 -0.097,-0.15664 l -2.92911,-1.46438 c -0.13053,-0.0653 -0.24871,-0.15028 -0.35172,-0.25364 l -1.40441,-1.40441 c -0.19332,-0.19333 -0.3242,-0.42439 -0.37888,-0.66746 -0.15135,-0.66992 0.22083,-1.34832 0.86536,-1.57903 0.1397,-0.0497 0.28716,-0.0755 0.4385,-0.0755 0.27729,0 0.54998,0.0843 0.78811,0.24307 l 3.79836,2.53224 c 0.0275,0.018 0.0593,0.0279 0.0924,0.0279 h 1.03294 c 0.51505,0 0.97825,0.28575 1.20826,0.74648 l 1.44216,2.88431 c 0.0935,0.18698 0.14252,0.39582 0.14252,0.60396 v 1.3716 c 0,0.0272 0.006,0.0547 0.0183,0.0783 l 1.4411,2.88219 c 0.0289,0.0579 0.0847,0.0924 0.14923,0.0924 h 4.51661 c 0.0409,0 0.0826,0.002 0.12347,0.006 0.37501,0.009 0.57397,0.29351 0.5708,0.57009 -0.003,0.30233 -0.23531,0.60819 -0.67204,0.60819 z" /><path
     inkscape:connector-curvature="0"
     id="path316"
     style="fill:#b52990;fill-opacity:1;fill-rule:nonzero;stroke:none;stroke-width:0.35277775"
     d="m 285.82454,129.44457 v 0 c -0.22225,0 -0.43638,0.0469 -0.63676,0.1397 -0.37995,0.17639 -0.67346,0.50517 -0.8061,0.9024 l -1.3021,3.90737 -2.14242,-7.9e-4 c -0.84702,0 -1.53564,0.68897 -1.53564,1.53599 v 0.4953 c 0,0.58244 0.32349,1.10561 0.84419,1.36596 l 2.61973,1.31021 -7.9e-4,0.93839 -1.28164,1.282 c -0.29034,0.28963 -0.4498,0.67557 -0.4498,1.08549 v 2.96687 c 0,0.23565 0.0554,0.47201 0.16087,0.68297 l 3.17394,6.34789 c 0.26071,0.5207 0.78388,0.84419 1.36596,0.84419 h 2.67688 l 2.70157,2.70193 c 0.28857,0.28857 0.67204,0.44732 1.07985,0.44732 0.40781,0 0.79163,-0.15875 1.08021,-0.44732 l 2.70227,-2.70228 c 0.28999,-0.29034 0.4498,-0.67557 0.4498,-1.0862 v -0.94474 c 0,-0.58244 -0.3235,-1.10561 -0.84455,-1.36596 l -2.93406,-1.4672 -1.34972,-1.35079 3.74015,2.49344 c 0.25329,0.16862 0.54786,0.25788 0.85231,0.25788 h 1.02517 l 1.43757,2.87725 v 1.36878 c 0,0.23707 0.0557,0.47449 0.16192,0.68686 l 1.4411,2.88219 c 0.26035,0.5207 0.78387,0.8442 1.36596,0.8442 h 4.51379 l 0.0254,2.7e-4 c 0.54504,0 0.84384,-0.40288 0.84807,-0.78246 0.005,-0.41275 -0.31361,-0.73273 -0.74295,-0.74895 -0.0423,-0.004 -0.085,-0.006 -0.1277,-0.006 h -4.51661 l -1.43263,-2.87725 2.6e-4,-1.3709 c 0,-0.23565 -0.0557,-0.47201 -0.16122,-0.68298 l -1.44215,-2.88396 c -0.26035,-0.5207 -0.78352,-0.84419 -1.36596,-0.84419 h -1.03293 l -3.79272,-2.53048 c -0.2674,-0.17815 -0.57361,-0.27269 -0.88653,-0.27269 -0.17109,0 -0.33866,0.0293 -0.49777,0.0861 -0.72848,0.26035 -1.14899,1.02728 -0.97825,1.78328 0.0624,0.27658 0.2099,0.53729 0.42651,0.75389 l 1.40511,1.40441 c 0.11607,0.11677 0.24977,0.21273 0.39688,0.28645 l 2.92946,1.46439 -7.9e-4,0.93874 -2.70263,2.70192 -2.68852,-2.70227 c -0.28998,-0.29034 -0.67557,-0.45015 -1.08585,-0.45015 h -2.67158 l -3.16936,-6.34047 v -2.96404 l 1.282,-1.28164 c 0.29033,-0.28999 0.44979,-0.67593 0.44979,-1.08621 v -0.94474 c 0,-0.58243 -0.3235,-1.1056 -0.8442,-1.36595 l -2.62008,-1.30986 7.9e-4,-0.48931 2.14207,0.001 c 0.66216,0 1.24777,-0.42228 1.45697,-1.05022 l 1.28023,-3.84069 c 0.32808,0.0921 1.0541,0.3496 1.16946,0.39546 0.15699,0.0572 0.30057,0.084 0.43815,0.084 0.42827,0 0.76659,-0.26881 0.82303,-0.65369 0.049,-0.33479 -0.13688,-0.74331 -0.66322,-0.901 -0.0529,-0.018 -0.14217,-0.0522 -0.24836,-0.0928 -0.25858,-0.0984 -0.61066,-0.23283 -0.95991,-0.32773 -0.10618,-0.0402 -0.30409,-0.0991 -0.55209,-0.0991 m 0,0.35278 c 0.2293,0 0.40005,0.0653 0.44203,0.0818 0.48542,0.13018 0.99765,0.34961 1.21708,0.42298 0.629,0.18874 0.5013,0.86396 -0.0586,0.86396 -0.0914,0 -0.19438,-0.018 -0.30727,-0.0589 -0.085,-0.0342 -1.24107,-0.4512 -1.41464,-0.4512 -0.007,0 -0.0134,7.9e-4 -0.0173,0.002 -0.0864,0.0406 -0.15063,0.11253 -0.18062,0.2032 l -1.30281,3.90736 c -0.16087,0.48296 -0.61313,0.80892 -1.12218,0.80892 h -2.14313 c -0.19438,0 -0.35172,0.15734 -0.35172,0.35172 v 0.49001 c 0,0.133 0.0751,0.25506 0.19438,0.31468 l 2.62008,1.30986 c 0.4004,0.20003 0.64911,0.6029 0.64911,1.05057 v 0.94474 c 0,0.31397 -0.12453,0.6149 -0.34642,0.83679 l -1.28235,1.28235 c -0.066,0.066 -0.10301,0.15522 -0.10301,0.24871 v 2.96439 c 0,0.055 0.0127,0.10866 0.037,0.15769 l 3.17041,6.34083 c 0.0596,0.11924 0.18168,0.19438 0.31468,0.19438 h 2.67159 c 0.31397,0 0.61454,0.12488 0.83643,0.34678 l 2.69381,2.69346 c 0.0476,0.0473 0.10549,0.0854 0.1704,0.10019 0.0275,0.006 0.0543,0.009 0.0808,0.009 0.0917,0 0.1778,-0.036 0.24271,-0.10054 l 2.70263,-2.70228 c 0.0656,-0.0663 0.10302,-0.15558 0.10302,-0.24906 v -0.9398 c 0,-0.13335 -0.0755,-0.25471 -0.19439,-0.31433 l -2.92946,-1.46473 c -0.11324,-0.0564 -0.2159,-0.13053 -0.30515,-0.22014 l -1.40512,-1.4044 c -0.16051,-0.16087 -0.28152,-0.36019 -0.33161,-0.58174 -0.1337,-0.59196 0.1912,-1.17333 0.75283,-1.37406 0.12312,-0.0441 0.25117,-0.0653 0.37888,-0.0653 0.24271,0 0.48437,0.0759 0.69074,0.21343 l 3.79836,2.53224 c 0.0564,0.0374 0.12206,0.0575 0.19014,0.0575 h 1.03294 c 0.44803,0 0.85055,0.24871 1.05057,0.64911 l 1.44216,2.88396 c 0.0808,0.16228 0.12382,0.34396 0.12382,0.52529 v 1.3716 c 0,0.0547 0.0127,0.1083 0.037,0.15734 l 1.4411,2.88219 c 0.0586,0.11712 0.17604,0.1898 0.30692,0.1898 h 4.51661 c 0.0353,0 0.0713,0.002 0.10654,0.005 0.57926,0.0134 0.54328,0.82621 -0.084,0.82621 -0.008,0 -0.0169,-2.7e-4 -0.0254,-2.7e-4 h -4.51379 c -0.44768,0 -0.8502,-0.24871 -1.05057,-0.64911 l -1.4411,-2.88255 c -0.0818,-0.16404 -0.12453,-0.34501 -0.12453,-0.52881 v -1.36948 c 0,-0.0547 -0.0127,-0.10866 -0.0371,-0.15734 l -1.43897,-2.87761 c -0.0596,-0.11889 -0.18133,-0.19438 -0.31433,-0.19438 h -1.02517 c -0.23389,0 -0.46214,-0.0692 -0.65652,-0.19861 l -3.8227,-2.54847 c -0.0663,-0.0445 -0.13123,-0.0589 -0.18733,-0.0589 -0.0741,0 -0.1337,0.0254 -0.16474,0.042 -0.0561,0.03 -0.18945,0.12276 -0.18098,0.32067 0.004,0.0864 0.0434,0.16722 0.10372,0.22789 l 1.41922,1.41888 c 0.0261,0.0265 0.0561,0.0476 0.0889,0.0642 l 2.93405,1.46721 c 0.40076,0.20037 0.64947,0.60254 0.64947,1.05057 v 0.94474 c 0,0.31397 -0.12453,0.61489 -0.34643,0.83679 l -2.70263,2.70227 c -0.22154,0.2219 -0.51647,0.34396 -0.83044,0.34396 -0.31362,0 -0.60854,-0.12206 -0.83044,-0.34396 l -2.70228,-2.70227 c -0.066,-0.0663 -0.15522,-0.10302 -0.2487,-0.10302 h -2.67688 c -0.44768,0 -0.85019,-0.24871 -1.05022,-0.64911 l -3.17394,-6.34788 c -0.0811,-0.16228 -0.12383,-0.34396 -0.12383,-0.52529 v -2.96686 c 0,-0.31362 0.12453,-0.61418 0.34643,-0.83608 l 1.28199,-1.2827 c 0.0663,-0.0656 0.10302,-0.15522 0.10302,-0.24871 v -0.93945 c 0,-0.13335 -0.0751,-0.25505 -0.19403,-0.31432 l -2.62008,-1.31022 c -0.40041,-0.20038 -0.64911,-0.60254 -0.64911,-1.05057 v -0.4953 c 0,-0.6537 0.52952,-1.18322 1.18286,-1.18322 h 2.14348 c 0.15099,0 0.2854,-0.0967 0.33337,-0.24024 l 1.30246,-3.90737 c 0.1016,-0.30585 0.32773,-0.5588 0.61983,-0.69426 0.17463,-0.0808 0.34325,-0.10689 0.48824,-0.10689" /><path
     inkscape:connector-curvature="0"
     id="path320"
     style="fill:#4fcb2f;fill-opacity:1;fill-rule:nonzero;stroke:none;stroke-width:0.35277775"
     d="m 324.22838,180.82781 c -0.74965,0 -1.35959,-0.60995 -1.35959,-1.35925 v -2.35973 c 0,-0.048 -0.0183,-0.0931 -0.0526,-0.127 l -1.27707,-1.2767 c -0.25434,-0.25436 -0.39404,-0.59197 -0.39404,-0.95144 v -2.81729 c 0,-0.0466 -0.019,-0.0924 -0.0519,-0.12524 l -2.68888,-2.68887 c -0.0317,-0.0317 -0.072,-0.048 -0.11676,-0.048 -0.0632,0.008 -0.0938,0.0251 -0.11959,0.0505 l -0.64313,0.64347 c -0.0339,0.0339 -0.0522,0.079 -0.0522,0.12665 0,0.048 0.0183,0.0928 0.0522,0.12664 l 0.95462,0.95462 c 0.0339,0.0339 0.079,0.0526 0.12666,0.0526 h 0.63606 c 0.7493,0 1.35924,0.6096 1.35924,1.35926 v 1.61713 c 0,0.43321 -0.20354,0.84243 -0.54433,1.09502 -0.23495,0.17357 -0.51046,0.26529 -0.79692,0.26529 -0.14465,0 -0.28927,-0.024 -0.42934,-0.0706 l -4.00825,-1.33597 c -0.19756,-0.066 -0.37924,-0.17851 -0.52599,-0.32527 l -1.37654,-1.37653 c -0.254,-0.25365 -0.39405,-0.59161 -0.39405,-0.95109 v -1.09255 c 0,-0.35772 0.14499,-0.70803 0.39828,-0.96133 l 1.27706,-1.27705 c 0.031,-0.031 0.0487,-0.0734 0.0487,-0.11677 v -4.43089 c 0,-0.0575 -0.0307,-0.11218 -0.0804,-0.14181 l -1.6884,-1.04352 c -0.10654,-0.0656 -0.22789,-0.10054 -0.35207,-0.10054 h -35.69194 c -0.16192,0 -0.31856,-0.0674 -0.42968,-0.18556 -0.11289,-0.11959 -0.16934,-0.27588 -0.15946,-0.44062 0.0191,-0.31045 0.28081,-0.55351 0.59655,-0.55351 l 35.73533,-0.005 c 0.44626,0 0.75741,0.1912 0.77047,0.19932 l 1.82774,1.11795 c 0.40181,0.2413 0.65193,0.68333 0.65193,1.15323 v 4.42524 c 0,0.36301 -0.14146,0.7045 -0.39793,0.96097 l -1.27741,1.27741 c -0.0307,0.0307 -0.0483,0.073 -0.0483,0.11677 v 1.0922 c 0,0.0476 0.019,0.0935 0.0519,0.12665 l 1.37266,1.3723 c 0.0183,0.0183 0.0409,0.0325 0.0653,0.0406 l 4.00791,1.33597 c 0.0172,0.006 0.0349,0.008 0.0529,0.008 0.0332,0 0.0656,-0.0102 0.0939,-0.0303 0.0444,-0.031 0.0705,-0.0843 0.0705,-0.14323 v -1.62242 c 0,-0.0988 -0.0804,-0.17922 -0.1792,-0.17922 h -0.63606 c -0.36301,0 -0.70451,-0.14146 -0.96097,-0.39828 l -0.96097,-0.96026 c -0.52634,-0.5267 -0.52634,-1.38395 0,-1.91029 l 0.64911,-0.64876 c 0.21132,-0.21202 0.48683,-0.34855 0.77575,-0.38594 0.06,-0.007 0.1196,-0.0113 0.17852,-0.0113 0.35949,0 0.6971,0.1397 0.9511,0.39405 l 2.6924,2.6924 c 0.25434,0.25436 0.39404,0.59197 0.39404,0.95109 v 2.81658 c 0,0.0469 0.0193,0.0931 0.0529,0.127 l 1.27635,1.276 c 0.25082,0.25082 0.39476,0.59796 0.39476,0.95285 v 2.36467 c 0,0.0991 0.0804,0.17921 0.1792,0.17921 h 0.18521 c 0.0991,0 0.17923,-0.0801 0.17923,-0.17921 v -2.35973 c 0,-0.048 -0.0188,-0.0931 -0.0526,-0.127 l -0.7479,-0.74753 c -0.3062,-0.30657 -0.4519,-0.73943 -0.38909,-1.15888 0.066,-0.44027 0.3316,-0.80645 0.72919,-1.00542 l 2.09301,-1.04634 c 0.0561,-0.0282 0.091,-0.0847 0.091,-0.14781 v -2.66806 c 0,-0.0437 -0.0177,-0.0864 -0.0483,-0.11712 l -1.1176,-1.1176 c -0.41029,-0.40957 -0.51155,-1.03364 -0.25226,-1.55293 l 1.23719,-2.47403 c 0.0317,-0.0635 0.0193,-0.14005 -0.031,-0.1905 l -1.11371,-1.11336 c -0.25294,-0.25295 -0.39793,-0.60325 -0.39793,-0.96097 v -7.53145 c 0,-0.74966 0.60994,-1.35961 1.35924,-1.35961 h 1.90923 c 0.0988,0 0.1792,-0.0801 0.1792,-0.17851 v -0.18591 c 0,-0.0988 -0.0804,-0.17921 -0.1792,-0.17921 h -2.36114 c -0.357,0 -0.70625,-0.14464 -0.95885,-0.39723 l -3.18558,-3.18488 c -0.0452,-0.0459 -0.0878,-0.0942 -0.12523,-0.14499 l -3.50134,-4.66831 0.0124,-0.019 c -0.1002,-0.18485 -0.11113,-0.39123 -0.0236,-0.56726 0.0924,-0.18662 0.27869,-0.30269 0.48578,-0.30269 0.16615,0 0.32914,0.0748 0.46635,0.21238 h 0.0279 l 0.0561,0.0765 3.42088,4.56036 3.20429,3.20675 c 0.0314,0.0314 0.0726,0.0487 0.11641,0.0487 h 2.36572 c 0.74965,0 1.35925,0.6096 1.35925,1.3589 v 0.18556 c 0,0.74965 -0.6096,1.35925 -1.35925,1.35925 h -1.90923 c -0.0991,0 -0.1792,0.0804 -0.1792,0.17922 v 7.53145 c 0,0.0476 0.0188,0.0924 0.0525,0.12665 l 1.11374,1.11336 c 0.40992,0.40993 0.51117,1.03435 0.25188,1.55328 l -1.23685,2.47368 c -0.0317,0.0639 -0.0193,0.14041 0.0307,0.1905 l 1.11725,1.1169 c 0.25435,0.2547 0.39476,0.59301 0.39476,0.95285 v 2.66735 c 0,0.51259 -0.28506,0.97367 -0.74366,1.20332 l -2.09304,1.04634 c -0.0374,0.0187 -0.0652,0.049 -0.0801,0.0871 -0.0235,0.0614 -0.006,0.1337 0.0441,0.18415 l 0.75497,0.75495 c 0.25363,0.25435 0.3937,0.59231 0.3937,0.95108 v 2.36573 c 0,0.7493 -0.60997,1.35925 -1.35927,1.35925 z" /><path
     inkscape:connector-curvature="0"
     id="path324"
     style="fill:#7fe000;fill-opacity:1;fill-rule:nonzero;stroke:none;stroke-width:0.35277775"
     d="m 324.22838,179.47149 -0.003,-2.3675 c 0,-0.0674 -0.005,-0.1344 -0.013,-0.20002 l 0.20286,0.20285 v 2.36184 z m -6.02472,-35.68559 v 0 c -0.27448,0 -0.52142,0.15346 -0.64384,0.4004 -0.097,0.19509 -0.10194,0.41628 -0.0214,0.62477 l -0.0251,0.036 0.15206,0.21308 3.42442,4.56565 c 0.0427,0.0575 0.0903,0.11219 0.14145,0.16299 l 3.18489,3.18558 c 0.28999,0.28963 0.67485,0.44873 1.08408,0.44873 h 2.36114 l 0.003,0.18839 -1.91206,0.002 c -0.84701,0 -1.53564,0.68897 -1.53564,1.53599 v 7.5311 c 0,0.40993 0.15946,0.79587 0.44979,1.08585 l 1.11371,1.11372 -1.23931,2.46062 c -0.2935,0.58703 -0.17886,1.29294 0.28541,1.75684 l 1.1176,1.11795 -0.003,2.65995 -2.08669,1.03646 c -0.44979,0.22472 -0.75036,0.63923 -0.82444,1.137 -0.0214,0.14146 -0.0214,0.28434 -0.003,0.42439 l -0.7239,-0.72425 v -2.81799 c 0,-0.4064 -0.15806,-0.78846 -0.44556,-1.07597 l -2.6924,-2.6924 c -0.28718,-0.28752 -0.66958,-0.44556 -1.07598,-0.44556 -0.0667,0 -0.13441,0.004 -0.20108,0.0127 -0.32703,0.042 -0.63924,0.19685 -0.87808,0.43603 l -0.64875,0.64876 c -0.28856,0.28822 -0.44732,0.67169 -0.44732,1.07985 0,0.40782 0.15876,0.79164 0.44732,1.07986 l 0.96062,0.96061 c 0.29033,0.28998 0.67556,0.44979 1.08585,0.44979 h 0.63606 l 0.003,1.62525 -3.9931,-1.33844 -1.36843,-1.36984 -7.9e-4,-1.09466 1.27388,-1.26895 c 0.28998,-0.29033 0.44979,-0.67557 0.44979,-1.0862 v -4.42489 c 0,-0.53164 -0.28293,-1.03152 -0.73872,-1.30528 l -1.82668,-1.1176 c -0.0342,-0.0212 -0.37324,-0.22401 -0.86078,-0.22401 l -0.0487,7.9e-4 -35.687,0.004 c -0.40852,0 -0.74789,0.31609 -0.77258,0.71932 -0.0127,0.21061 0.0628,0.41909 0.20673,0.5722 0.14428,0.15346 0.34819,0.2413 0.55844,0.2413 h 35.69194 c 0.0917,0 0.18168,0.0254 0.25929,0.0741 l 1.68663,1.04246 -0.001,4.42384 -1.27423,1.26929 c -0.28999,0.28998 -0.4498,0.67592 -0.4498,1.08585 v 1.09255 c 0,0.4064 0.15805,0.78846 0.44556,1.07562 l 1.37654,1.37689 c 0.16651,0.16581 0.37218,0.29316 0.59514,0.3676 l 4.00827,1.33632 c 0.15769,0.0522 0.32102,0.079 0.48471,0.079 0.32491,0 0.63675,-0.10371 0.90205,-0.29986 0.38558,-0.28575 0.61595,-0.74753 0.61595,-1.23648 v -1.61714 c 0,-0.84666 -0.68863,-1.53599 -1.53564,-1.53599 h -0.63606 l -0.95639,-0.95532 0.64384,-0.6477 2.67509,2.6871 v 2.81764 c 0,0.40605 0.15841,0.78811 0.44556,1.07597 l 1.27778,1.27706 v 2.36184 c 0,0.84703 0.68932,1.53565 1.53599,1.53565 h 0.1852 c 0.84704,0 1.53565,-0.68862 1.53565,-1.53565 v -2.36572 c 0,-0.4064 -0.15804,-0.78846 -0.44556,-1.07598 l -0.75459,-0.75459 2.08317,-1.0354 c 0.51892,-0.25964 0.841,-0.78105 0.841,-1.36102 v -2.66735 c 0,-0.40675 -0.15875,-0.78951 -0.44662,-1.07774 l -1.11688,-1.11689 1.23931,-2.46062 c 0.29315,-0.58703 0.17885,-1.29294 -0.28541,-1.75684 l -1.11337,-1.11336 v -7.53322 l 1.91207,-0.003 c 0.84666,0 1.53564,-0.68898 1.53564,-1.536 v -0.18521 c 0,-0.84666 -0.68898,-1.53564 -1.53564,-1.53564 h -2.36538 l -3.17994,-3.18452 -3.42371,-4.5646 -0.10584,-0.14111 -0.0455,-7.9e-4 c -0.1591,-0.13864 -0.34537,-0.21343 -0.53727,-0.21343 m 0,0.35278 c 0.12417,0 0.26387,0.0621 0.3891,0.21272 0,0.001 0.003,0.002 0.004,0.002 0.003,0 0.007,-0.002 0.01,-0.002 0.003,0 0.003,8e-4 0.004,0.002 l 3.42334,4.56459 c 0.0103,0.0134 0.0212,0.0261 0.0332,0.0378 l 3.1877,3.1877 c 0.0646,0.0649 0.15028,0.10019 0.24164,0.10019 h 2.36538 c 0.65299,0 1.18287,0.52952 1.18287,1.18286 v 0.18521 c 0,0.6537 -0.52988,1.18322 -1.18287,1.18322 h -1.90924 c -0.1965,0 -0.3556,0.1591 -0.3556,0.3556 v 7.5311 c 0,0.0945 0.0374,0.18485 0.10443,0.25153 l 1.11337,1.11337 c 0.35629,0.3563 0.4445,0.89852 0.21908,1.34972 l -1.2372,2.47368 c -0.0656,0.13159 -0.0399,0.29034 0.0642,0.39405 l 1.11691,1.11725 c 0.21977,0.21978 0.34325,0.51753 0.34325,0.82797 v 2.66735 c 0,0.44521 -0.24765,0.84596 -0.64593,1.04564 l -2.09338,1.04598 c -0.0776,0.0392 -0.13512,0.10301 -0.16547,0.18133 -0.0497,0.12841 -0.014,0.27481 0.084,0.37289 l 0.75459,0.75459 c 0.22048,0.22084 0.34218,0.51435 0.34218,0.82656 v 2.36572 c 0,0.65335 -0.52951,1.18287 -1.18287,1.18287 h -0.18521 c -0.65368,0 -1.18321,-0.52952 -1.18321,-1.18287 v -2.35973 c 0,-0.0945 -0.0374,-0.18485 -0.10372,-0.25153 l -1.27775,-1.27705 c -0.22085,-0.22084 -0.34219,-0.51435 -0.34219,-0.82656 v -2.81728 c 0,-0.0938 -0.0374,-0.1838 -0.10337,-0.24977 l -2.68888,-2.68887 c -0.0649,-0.0649 -0.15029,-0.10019 -0.24165,-0.10019 -0.0204,0 -0.042,0.002 -0.0632,0.006 -0.0688,0.012 -0.13124,0.0473 -0.18026,0.0963 l -0.64381,0.64418 c -0.13902,0.13864 -0.13902,0.36371 0,0.50235 l 0.95461,0.95462 c 0.0667,0.067 0.15698,0.10407 0.25117,0.10407 h 0.63606 c 0.65334,0 1.18287,0.52987 1.18287,1.18321 v 1.61714 c 0,0.37394 -0.17251,0.73025 -0.47307,0.95285 -0.20603,0.1524 -0.44662,0.23072 -0.69215,0.23072 -0.12454,0 -0.25014,-0.0201 -0.37325,-0.061 l -4.00826,-1.33633 c -0.1711,-0.0571 -0.32914,-0.15451 -0.4572,-0.28222 l -1.37619,-1.37689 c -0.22084,-0.22049 -0.34255,-0.51435 -0.34255,-0.8262 v -1.09256 c 0,-0.31362 0.12489,-0.61454 0.34679,-0.83643 l 1.27705,-1.27706 c 0.0635,-0.0639 0.10019,-0.15169 0.10019,-0.24165 v -4.43089 c 0,-0.11924 -0.0639,-0.23178 -0.16616,-0.29316 l -1.68628,-1.04246 c -0.1337,-0.0825 -0.28786,-0.12664 -0.44485,-0.12664 h -35.69392 c -0.23707,0 -0.42757,-0.19897 -0.4131,-0.43921 0.0134,-0.21943 0.20073,-0.38806 0.42051,-0.38806 l 35.69652,-0.004 c 0.0131,-2.6e-4 0.0265,-7.9e-4 0.0392,-7.9e-4 0.4004,0 0.67698,0.17251 0.67698,0.17251 l 1.8288,1.11901 c 0.34996,0.2099 0.56762,0.59407 0.56762,1.00259 v 4.42489 c 0,0.31362 -0.12453,0.61489 -0.34642,0.83679 l -1.27741,1.27741 c -0.0639,0.0632 -0.0998,0.15099 -0.0998,0.24095 v 1.09255 c 0,0.0942 0.037,0.18486 0.10407,0.25153 l 1.37195,1.37195 c 0.0378,0.0378 0.084,0.0663 0.13406,0.0833 l 4.00825,1.33562 c 0.036,0.012 0.0727,0.018 0.10901,0.018 0.0688,0 0.13652,-0.0212 0.1951,-0.0624 0.0931,-0.0653 0.14534,-0.17428 0.14534,-0.28752 v -1.62242 c 0,-0.1965 -0.1591,-0.3556 -0.3556,-0.3556 h -0.63606 c -0.31361,0 -0.61455,-0.12454 -0.83643,-0.34643 l -0.96062,-0.96062 c -0.4586,-0.45861 -0.4586,-1.20226 0,-1.66087 l 0.6491,-0.64876 c 0.18169,-0.18203 0.41804,-0.30268 0.67347,-0.33549 0.0522,-0.007 0.1044,-0.01 0.15592,-0.01 0.31221,0 0.60571,0.12135 0.82656,0.34219 l 2.6924,2.6924 c 0.22085,0.22084 0.34218,0.51435 0.34218,0.82656 v 2.81623 c 0,0.0942 0.0378,0.18485 0.10409,0.25153 l 1.27704,1.27635 c 0.21944,0.21943 0.3429,0.51752 0.3429,0.82832 v 2.36467 c 0,0.1965 0.15912,0.3556 0.3556,0.3556 h 0.18521 c 0.1965,0 0.3556,-0.1591 0.3556,-0.3556 v -2.35973 c 0,-0.0946 -0.0374,-0.18486 -0.10441,-0.25153 l -0.7479,-0.74789 c -0.26458,-0.26459 -0.39441,-0.63818 -0.33938,-1.00824 0.0571,-0.38206 0.28893,-0.70097 0.6336,-0.87348 l 2.09304,-1.04634 c 0.11642,-0.0582 0.18873,-0.17533 0.18873,-0.3055 v -2.66841 c 0,-0.09 -0.0363,-0.1778 -0.0998,-0.2413 l -1.1176,-1.1176 c -0.35666,-0.35631 -0.4445,-0.89853 -0.21907,-1.34973 l 1.23719,-2.47368 c 0.0656,-0.13158 0.0398,-0.28998 -0.0642,-0.39405 l -1.11371,-1.11372 c -0.2219,-0.2219 -0.34644,-0.52282 -0.34644,-0.83644 v -7.5311 c 0,-0.65334 0.52953,-1.18321 1.18287,-1.18321 h 1.90923 c 0.19614,0 0.3556,-0.15911 0.3556,-0.35525 v -0.18556 c 0,-0.1965 -0.15946,-0.3556 -0.3556,-0.3556 h -2.36114 c -0.31255,0 -0.61312,-0.12383 -0.83431,-0.34537 l -3.18524,-3.18523 c -0.0388,-0.0392 -0.0755,-0.0811 -0.10866,-0.12524 l -3.42477,-4.56671 c -0.004,-0.005 0.008,-0.0109 0.004,-0.0166 -0.25789,-0.33902 -0.0448,-0.69251 0.2526,-0.69251" /><path
     inkscape:connector-curvature="0"
     id="path332"
     style="fill:none;stroke:#b5278f;stroke-width:0.7055555;stroke-linecap:butt;stroke-linejoin:miter;stroke-miterlimit:10;stroke-dasharray:none;stroke-opacity:1"
     d="m 317.71129,141.95749 c 0,0.46143 -0.37428,0.83502 -0.83502,0.83502 -0.46143,0 -0.83537,-0.37359 -0.83537,-0.83502 0,-0.46143 0.37394,-0.83503 0.83537,-0.83503 0.46074,0 0.83502,0.3736 0.83502,0.83503 z" /><path
     inkscape:connector-curvature="0"
     id="path336"
     style="fill:#1692b1;fill-opacity:1;fill-rule:nonzero;stroke:none;stroke-width:0.35277775"
     d="m 332.55791,153.64911 c 0,0.46143 -0.37428,0.83538 -0.83537,0.83538 -0.46109,0 -0.83502,-0.37395 -0.83502,-0.83538 0,-0.46108 0.37393,-0.83503 0.83502,-0.83503 0.46109,0 0.83537,0.37395 0.83537,0.83503" /><path
     inkscape:connector-curvature="0"
     id="path340"
     style="fill:none;stroke:#29abe2;stroke-width:0.7055555;stroke-linecap:butt;stroke-linejoin:miter;stroke-miterlimit:10;stroke-dasharray:none;stroke-opacity:1"
     d="m 332.55791,153.64911 c 0,0.46143 -0.37428,0.83538 -0.83537,0.83538 -0.46109,0 -0.83502,-0.37395 -0.83502,-0.83538 0,-0.46108 0.37393,-0.83503 0.83502,-0.83503 0.46109,0 0.83537,0.37395 0.83537,0.83503 z" /><path
     inkscape:connector-curvature="0"
     id="path348"
     style="fill:none;stroke:#7fe000;stroke-width:0.7055555;stroke-linecap:butt;stroke-linejoin:miter;stroke-miterlimit:10;stroke-dasharray:none;stroke-opacity:1"
     d="m 290.43062,131.56501 c 0,0.46143 -0.3743,0.83502 -0.83503,0.83502 -0.46143,0 -0.83502,-0.37359 -0.83502,-0.83502 0,-0.46144 0.37359,-0.83503 0.83502,-0.83503 0.46073,0 0.83503,0.37359 0.83503,0.83503 z" /><path
     inkscape:connector-curvature="0"
     id="path352"
     style="fill:#ed7530;fill-opacity:1;fill-rule:nonzero;stroke:none;stroke-width:0.35277775"
     d="m 310.1021,157.73223 c 0,0.46108 -0.37394,0.83502 -0.83503,0.83502 -0.46108,0 -0.83502,-0.37394 -0.83502,-0.83502 0,-0.46144 0.37394,-0.83538 0.83502,-0.83538 0.46109,0 0.83503,0.37394 0.83503,0.83538" /><path
     inkscape:connector-curvature="0"
     id="path356"
     style="fill:none;stroke:#f7931e;stroke-width:0.7055555;stroke-linecap:butt;stroke-linejoin:miter;stroke-miterlimit:10;stroke-dasharray:none;stroke-opacity:1"
     d="m 310.1021,157.73223 c 0,0.46108 -0.37394,0.83502 -0.83503,0.83502 -0.46108,0 -0.83502,-0.37394 -0.83502,-0.83502 0,-0.46144 0.37394,-0.83538 0.83502,-0.83538 0.46109,0 0.83503,0.37394 0.83503,0.83538 z" /></g></g>
</svg>